<svg width="16" height="16" viewBox="0 0 16 16" fill="none" xmlns="http://www.w3.org/2000/svg">
<path d="M12.3933 7.13985L8.66661 10.8598C8.5417 10.984 8.37274 11.0537 8.19661 11.0537C8.02049 11.0537 7.85152 10.984 7.72661 10.8598L3.99994 7.13985C3.90593 7.0466 3.84181 6.92747 3.81576 6.79764C3.78971 6.6678 3.80292 6.53316 3.8537 6.41086C3.90448 6.28857 3.99052 6.18416 4.10087 6.11096C4.21122 6.03776 4.34086 5.99908 4.47328 5.99985H11.9199C12.0524 5.99908 12.182 6.03776 12.2924 6.11096C12.4027 6.18416 12.4887 6.28857 12.5395 6.41086C12.5903 6.53316 12.6035 6.6678 12.5775 6.79764C12.5514 6.92747 12.4873 7.0466 12.3933 7.13985Z" fill="black"/>
</svg>
