<svg width="327" height="380" viewBox="0 0 327 380" fill="none" xmlns="http://www.w3.org/2000/svg">
<path d="M186.558 332.341C182.898 270.319 168.113 179.232 107.799 140.989C89.9386 129.586 67.5403 123.328 46.0205 124.58C18.3521 126.109 -5.94907 142.519 -34.203 141.685C-64.2137 140.711 -52.5023 197.449 -50.4528 212.746C-44.4507 256.552 -50.16 299.522 -48.4033 343.467C-47.3785 370.167 -38.4485 394.225 -13.4152 408.688C7.37266 420.647 32.845 423.011 56.4144 419.535C85.5467 415.363 111.458 400.9 138.248 390.192C150.985 385.047 166.795 382.683 176.75 372.948C188.169 361.962 187.437 346.387 186.558 332.341Z" fill="#DDE8EE"/>
<path d="M212.031 305.92C208.371 243.897 193.585 152.81 133.271 114.567C115.411 103.164 93.0128 96.9063 71.493 98.1578C43.8246 99.6875 19.5232 116.097 -8.7307 115.263C-38.7414 114.289 -27.0298 171.027 -24.9803 186.324C-18.9782 230.13 -24.6875 273.1 -22.9308 317.045C-21.906 343.745 -12.976 367.803 12.0573 382.266C32.8451 394.225 58.3175 396.589 81.8869 393.113C111.019 388.941 136.931 374.478 163.721 363.77C176.457 358.625 192.268 356.261 202.222 346.526C213.641 335.679 212.763 319.965 212.031 305.92Z" stroke="#E89B32" strokeWidth="3" strokeMiterlimit="10"/>
<path d="M177.825 180.264C188.966 203.038 173.451 233.439 150.636 244.536C127.821 255.633 100.294 246.166 89.153 223.392C78.0117 200.618 76.1494 176.13 98.9644 165.034C121.779 153.937 166.683 157.49 177.825 180.264Z" fill="#F8E0BF"/>
<mask id="mask0_393_753" style="mask-type:alpha" maskUnits="userSpaceOnUse" x="93" y="72" width="174" height="153">
<path d="M228.55 171.001C227.138 202.392 195.693 226.476 158.316 224.794C120.94 223.112 91.7855 196.301 93.1981 164.911C94.6106 133.52 216.624 71.0798 254.001 72.7618C291.377 74.4437 229.963 139.611 228.55 171.001Z" fill="#FFCB3C"/>
</mask>
<g mask="url(#mask0_393_753)">
<path fillRule="evenodd" clipRule="evenodd" d="M153.154 159.986C149.037 158.323 144.324 157.817 139.057 158.863C121.07 162.435 113.262 173.75 111.663 187.576C109.421 207.009 119.921 231.527 129.756 243.918C130.905 245.365 133.219 245.773 134.924 244.833C136.624 243.889 137.077 241.95 135.927 240.503C126.808 229.015 116.991 206.298 119.073 188.278C120.357 177.133 126.379 167.831 140.877 164.95C144.013 164.328 146.83 164.561 149.336 165.425C148.448 166.778 147.597 168.135 146.787 169.494C143.55 174.938 138.391 190.224 139.544 201.686C140.459 210.755 145.237 217.445 155.704 217.678C161.697 217.813 166.252 214.973 169.127 210.111C172.672 204.115 173.541 194.738 171.649 185.625C170.078 178.047 166.616 170.687 161.523 165.613C160.81 164.902 160.065 164.233 159.292 163.61C177.893 138.439 210.44 115.769 243.205 106.964C245.151 106.441 246.199 104.683 245.547 103.035C244.894 101.391 242.781 100.482 240.835 101.005C206.659 110.189 172.69 133.755 153.154 159.986ZM155.427 169.185C154.746 170.24 154.087 171.3 153.458 172.36C150.552 177.246 145.925 190.967 146.96 201.256C147.509 206.701 149.505 211.284 155.788 211.426C158.87 211.496 160.975 209.757 162.451 207.257C164.411 203.944 165.262 199.37 165.196 194.457C165.088 186.835 162.73 178.392 158.182 172.291C157.343 171.165 156.425 170.119 155.427 169.185Z" fill="#111111"/>
<path fillRule="evenodd" clipRule="evenodd" d="M216.548 144.904C220.088 130.828 231.861 116.211 244.25 106.273C245.723 105.09 245.76 103.111 244.33 101.851C242.9 100.595 240.54 100.532 239.067 101.715C225.68 112.456 213.088 128.31 209.266 143.519C208.844 145.202 210.132 146.878 212.142 147.26C214.152 147.641 216.126 146.588 216.548 144.904Z" fill="#111111"/>
<path fillRule="evenodd" clipRule="evenodd" d="M239.413 101.133C226.895 106.457 208.067 106.379 194.502 102.783C192.532 102.263 190.456 103.177 189.868 104.822C189.28 106.466 190.397 108.225 192.367 108.749C207.619 112.787 228.783 112.71 242.857 106.724C244.677 105.952 245.384 104.068 244.432 102.527C243.481 100.985 241.232 100.361 239.413 101.133Z" fill="#111111"/>
</g>
</svg>
