<svg width="22" height="22" viewBox="0 0 22 22" fill="none" xmlns="http://www.w3.org/2000/svg">
<g clip-path="url(#clip0_2640_1490)">
<path d="M10.6667 21.3333C16.5577 21.3333 21.3333 16.5577 21.3333 10.6667C21.3333 4.77563 16.5577 0 10.6667 0C4.77563 0 0 4.77563 0 10.6667C0 16.5577 4.77563 21.3333 10.6667 21.3333Z" fill="#E89B32"/>
<path fill-rule="evenodd" clip-rule="evenodd" d="M10.6654 13.5336C11.2103 13.5336 11.7429 13.372 12.196 13.0693C12.649 12.7666 13.0021 12.3363 13.2106 11.8329C13.4191 11.3294 13.4737 10.7755 13.3674 10.2411C13.2611 9.70665 12.9987 9.21576 12.6133 8.83048C12.228 8.44519 11.7371 8.18282 11.2027 8.07653C10.6683 7.97025 10.1143 8.02483 9.61093 8.23337C9.10753 8.44191 8.67727 8.79504 8.37456 9.24811C8.07185 9.70119 7.9103 10.2338 7.91032 10.7787C7.91118 11.5091 8.20173 12.2094 8.71822 12.7258C9.23471 13.2423 9.93496 13.5328 10.6654 13.5336ZM10.6654 7.0897C11.395 7.08967 12.1082 7.306 12.7148 7.71132C13.3215 8.11665 13.7943 8.69276 14.0736 9.36681C14.3528 10.0409 14.4259 10.7826 14.2835 11.4982C14.1412 12.2137 13.7899 12.8711 13.274 13.387C12.7581 13.9029 12.1009 14.2543 11.3853 14.3966C10.6697 14.539 9.92799 14.466 9.25392 14.1868C8.57985 13.9076 8.0037 13.4348 7.59834 12.8282C7.19297 12.2215 6.9766 11.5083 6.97657 10.7787C6.97766 9.80072 7.36665 8.86307 8.05819 8.17149C8.74972 7.4799 9.68735 7.09086 10.6654 7.0897ZM17.4362 15.2692C17.4361 15.4395 17.3684 15.6027 17.248 15.7231C17.1276 15.8435 16.9644 15.9112 16.7941 15.9113H4.53666C4.3664 15.9112 4.20315 15.8435 4.08276 15.7231C3.96237 15.6027 3.89467 15.4395 3.89453 15.2692V7.13649C3.89466 6.96623 3.96235 6.80298 4.08273 6.68259C4.20312 6.56219 4.36636 6.49448 4.53661 6.49432H7.64911C7.69637 6.49433 7.74251 6.48 7.78143 6.45322C7.82036 6.42643 7.85024 6.38846 7.86711 6.34432L8.53566 4.59766H12.795L13.4637 6.34432C13.4805 6.38849 13.5103 6.4265 13.5493 6.45329C13.5882 6.48008 13.6343 6.4944 13.6816 6.49432H16.7941C16.9643 6.4945 17.1276 6.56222 17.2479 6.68261C17.3683 6.803 17.436 6.96624 17.4362 7.13649L17.4362 15.2692Z" fill="white"/>
</g>
<defs>
<clipPath id="clip0_2640_1490">
<rect width="21.3333" height="21.3333" fill="white"/>
</clipPath>
</defs>
</svg>
