<svg width="20" height="20" viewBox="0 0 20 20" fill="none" xmlns="http://www.w3.org/2000/svg">
<g clip-path="url(#clip0_2295_1609)">
<path d="M18.2609 16.7532C19.3858 15.5463 19.999 14.0543 19.999 12.4997C19.999 10.5546 19.0381 8.79309 17.4992 7.54321C17.4641 11.9998 13.2731 15.6244 8.1252 15.6244H4.64117C5.98869 17.8469 8.7267 19.374 11.8748 19.374H19.3741C19.6279 19.374 19.8545 19.2217 19.9521 18.9874C20.0498 18.753 19.9951 18.4835 19.8154 18.3077L18.2609 16.7532Z" fill="#F7F9FA"/>
<path d="M8.12519 0.625977C3.64518 0.625977 0.00101658 3.70769 0.00101658 7.50028C0.00101658 9.05481 0.614236 10.5429 1.73912 11.7538L0.184592 13.3083C0.00492243 13.488 -0.0497595 13.7575 0.0478868 13.9879C0.145533 14.2223 0.372073 14.3746 0.625953 14.3746H8.12519C12.6052 14.3746 16.2494 11.2929 16.2494 7.50028C16.2494 3.70769 12.6052 0.625977 8.12519 0.625977Z" fill="#F7F9FA"/>
<path d="M11.8748 5.62549H4.37555C4.03183 5.62549 3.75061 5.90671 3.75061 6.25042C3.75061 6.59414 4.03183 6.87536 4.37555 6.87536H11.8748C12.2185 6.87536 12.4997 6.59414 12.4997 6.25042C12.4997 5.90671 12.2185 5.62549 11.8748 5.62549ZM9.37504 8.12523H4.37555C4.03183 8.12523 3.75061 8.40646 3.75061 8.75017C3.75061 9.09389 4.03183 9.37511 4.37555 9.37511H9.37504C9.71875 9.37511 9.99998 9.09389 9.99998 8.75017C9.99998 8.40646 9.71875 8.12523 9.37504 8.12523Z" fill="#08233F"/>
</g>
<defs>
<clipPath id="clip0_2295_1609">
<rect width="20" height="20" fill="white"/>
</clipPath>
</defs>
</svg>
