<svg width="24" height="24" viewBox="0 0 24 24" fill="none" xmlns="http://www.w3.org/2000/svg">
<g clip-path="url(#clip0_2246_2920)">
<g clip-path="url(#clip1_2246_2920)">
<path d="M12 24C18.6264 24 24 18.6264 24 12C24 5.3736 18.6264 0 12 0C5.3736 0 0 5.3736 0 12C0 18.6264 5.3736 24 12 24Z" fill="#FFFC00"/>
<mask id="mask0_2246_2920" style="mask-type:luminance" maskUnits="userSpaceOnUse" x="5" y="5" width="14" height="14">
<path d="M5.58478 5.97595H18.4176V18.024H5.58478V5.97595Z" fill="white"/>
</mask>
<g mask="url(#mask0_2246_2920)">
<path d="M12.0744 17.8823C12.0408 17.8823 12.0096 17.8823 11.9808 17.8775C11.9592 17.8775 11.9376 17.8823 11.916 17.8823C11.172 17.8823 10.6968 17.5439 10.2336 17.2175C9.91678 16.9895 9.61198 16.7807 9.26158 16.7207C9.09118 16.6919 8.91358 16.6775 8.75278 16.6775C8.45278 16.6775 8.21758 16.7255 8.04718 16.7591C7.94398 16.7807 7.85038 16.7975 7.78078 16.7975C7.70878 16.7975 7.63198 16.7807 7.59598 16.6655C7.56718 16.5671 7.54558 16.4687 7.52398 16.3751C7.47358 16.1351 7.43518 15.9863 7.33198 15.9695C6.15358 15.7847 5.81518 15.5375 5.73838 15.3623C5.72878 15.3359 5.72158 15.3119 5.72158 15.2855C5.71678 15.2159 5.76478 15.1559 5.83198 15.1487C7.64398 14.8487 8.45758 12.9983 8.49118 12.9167C8.49118 12.9119 8.49118 12.9119 8.49598 12.9071C8.60638 12.6839 8.62798 12.4871 8.56078 12.3287C8.43598 12.0383 8.03038 11.9039 7.76398 11.8223C7.69918 11.8007 7.63438 11.7839 7.58878 11.7623C7.05358 11.5535 7.00558 11.3351 7.02718 11.2223C7.06078 11.0327 7.31518 10.9007 7.51918 10.9007C7.57438 10.9007 7.62718 10.9103 7.66558 10.9319C7.90558 11.0423 8.12398 11.1023 8.31118 11.1023C8.56798 11.1023 8.68318 10.9943 8.69758 10.9775C8.68798 10.8527 8.68558 10.7255 8.67598 10.5959C8.62078 9.73911 8.55598 8.67351 8.82478 8.06631C9.63838 6.24711 11.3592 6.10551 11.868 6.10551C11.88 6.10551 12.0912 6.10071 12.0912 6.10071H12.1224C12.6312 6.10071 14.3568 6.24231 15.1704 8.06631C15.4392 8.67351 15.3768 9.74151 15.3192 10.5959L15.3144 10.6343C15.3048 10.7543 15.3024 10.8695 15.2928 10.9823C15.3048 10.9943 15.408 11.0927 15.6432 11.1071C15.8232 11.0975 16.0296 11.0423 16.2504 10.9367C16.3152 10.9079 16.392 10.8983 16.44 10.8983C16.5168 10.8983 16.5936 10.9103 16.6584 10.9415H16.6632C16.848 11.0063 16.9632 11.1335 16.968 11.2679C16.9728 11.3927 16.8744 11.5799 16.4016 11.7695C16.3536 11.7863 16.2912 11.8079 16.2264 11.8295C15.9576 11.9159 15.5544 12.0431 15.4296 12.3359C15.36 12.4943 15.3816 12.6911 15.4944 12.9143C15.4944 12.9191 15.4944 12.9191 15.4992 12.9239C15.5328 13.0007 16.3464 14.8559 18.1584 15.1535C18.228 15.1655 18.2736 15.2255 18.2688 15.2903C18.2688 15.3167 18.2592 15.3407 18.252 15.3671C18.18 15.5423 17.8416 15.7919 16.6584 15.9719C16.5648 15.9839 16.5264 16.1135 16.4664 16.3751C16.4448 16.4687 16.4232 16.5623 16.3944 16.6631C16.368 16.7495 16.3176 16.7879 16.2264 16.7879H16.2144C16.1496 16.7879 16.0656 16.7759 15.948 16.7543C15.7464 16.7159 15.5232 16.6775 15.2424 16.6775C15.0744 16.6775 14.904 16.6895 14.7336 16.7207C14.3784 16.7807 14.0784 16.9895 13.7616 17.2175C13.296 17.5439 12.816 17.8823 12.0744 17.8823Z" fill="white"/>
</g>
<mask id="mask1_2246_2920" style="mask-type:luminance" maskUnits="userSpaceOnUse" x="5" y="5" width="14" height="14">
<path d="M5.58478 5.97595H18.4176V18.024H5.58478V5.97595Z" fill="white"/>
</mask>
<g mask="url(#mask1_2246_2920)">
<path d="M12.1176 5.97595H11.8656C11.34 5.97595 9.54476 6.12235 8.70237 8.01835C8.41917 8.65675 8.48877 9.73915 8.53916 10.608C8.54876 10.7112 8.55117 10.8168 8.55597 10.92C8.51277 10.9464 8.43117 10.9752 8.30877 10.9752C8.14077 10.9752 7.94397 10.9248 7.71837 10.8168C7.65837 10.7904 7.58877 10.7736 7.51677 10.7736C7.25517 10.7736 6.94316 10.944 6.89516 11.2008C6.86156 11.3856 6.94317 11.6544 7.53837 11.8896C7.59357 11.9112 7.65836 11.9328 7.72316 11.9544C7.96796 12.0312 8.33997 12.1512 8.43837 12.3864C8.48877 12.5112 8.46717 12.6696 8.37837 12.8568C8.37837 12.8616 8.37356 12.8664 8.37356 12.8688C8.33997 12.9456 7.55516 14.7312 5.81756 15.0192C5.68556 15.0408 5.58717 15.1608 5.59437 15.2976C5.59917 15.336 5.60637 15.3792 5.62317 15.4176C5.75517 15.7224 6.30477 15.948 7.31037 16.1016C7.34397 16.1496 7.37996 16.308 7.39916 16.4064C7.42076 16.5 7.44236 16.6032 7.47116 16.7064C7.49996 16.8096 7.57916 16.9344 7.78316 16.9344C7.86476 16.9344 7.96317 16.9176 8.07357 16.8912C8.24156 16.8576 8.47196 16.8144 8.75516 16.8144C8.91356 16.8144 9.08157 16.8264 9.24237 16.8576C9.56877 16.9128 9.84236 17.1048 10.1592 17.3328C10.6176 17.6544 11.1312 18.0216 11.9184 18.0216C11.94 18.0216 11.9616 18.0216 11.9832 18.0168C12.0096 18.0168 12.0432 18.0216 12.0768 18.0216C12.864 18.0216 13.3776 17.6568 13.836 17.3328C14.1576 17.1048 14.4312 16.9128 14.7528 16.8576C14.9208 16.8312 15.0816 16.8144 15.24 16.8144C15.5136 16.8144 15.7272 16.848 15.9216 16.8864C16.0416 16.9128 16.14 16.92 16.212 16.92H16.2312C16.38 16.92 16.4832 16.8432 16.5264 16.6968C16.5552 16.5936 16.5768 16.4952 16.5984 16.4016C16.62 16.3032 16.6536 16.1448 16.6872 16.0968C17.688 15.9432 18.2424 15.7152 18.3744 15.4128C18.3912 15.3744 18.4008 15.3312 18.4032 15.2928C18.4128 15.156 18.3144 15.036 18.18 15.0144C16.4376 14.7264 15.6528 12.9384 15.624 12.864C15.624 12.8592 15.6192 12.8544 15.6192 12.852C15.5256 12.6648 15.504 12.5064 15.5592 12.3816C15.6576 12.1464 16.0296 12.0264 16.2744 11.9496C16.344 11.928 16.4064 11.9064 16.4592 11.8848C16.8912 11.7144 17.1096 11.5032 17.1048 11.2608C17.1 11.0688 16.9512 10.896 16.716 10.8144C16.6344 10.7808 16.5408 10.764 16.4496 10.764C16.3848 10.764 16.2912 10.7736 16.2048 10.8144C15.9984 10.9128 15.8112 10.9632 15.6528 10.9728C15.5448 10.968 15.4776 10.944 15.4392 10.9176C15.444 10.8288 15.4488 10.7376 15.456 10.644L15.4608 10.6056C15.516 9.73675 15.5856 8.65195 15.2976 8.01595C14.4432 6.11995 12.648 5.97595 12.1176 5.97595ZM12.1176 6.23995C12.6024 6.23995 14.2632 6.36955 15.0456 8.12395C15.3024 8.70235 15.2376 9.75115 15.1824 10.5912C15.1728 10.7232 15.1656 10.8528 15.1608 10.9776L15.156 11.028L15.1896 11.0664C15.2016 11.0832 15.3384 11.22 15.636 11.2344H15.6456C15.8424 11.2248 16.0656 11.1648 16.3056 11.0544C16.3392 11.0376 16.3872 11.028 16.4376 11.028C16.4928 11.028 16.5528 11.04 16.6056 11.0568L16.6152 11.0616C16.7448 11.1048 16.8288 11.1912 16.8336 11.268C16.8336 11.3112 16.8048 11.4648 16.3536 11.64C16.3104 11.6568 16.2504 11.6736 16.1856 11.6952C15.8952 11.7888 15.4536 11.9256 15.3024 12.2784C15.216 12.4752 15.2424 12.7056 15.372 12.9672C15.4224 13.092 16.2576 14.9664 18.1296 15.276C18.1296 15.2856 18.1248 15.2928 18.12 15.3072C18.0912 15.3792 17.8848 15.6408 16.6296 15.8328C16.4328 15.8616 16.3848 16.0848 16.3296 16.3392C16.308 16.428 16.2912 16.524 16.26 16.6176C16.2504 16.6464 16.2504 16.6464 16.2168 16.6464H16.2048C16.1496 16.6464 16.0632 16.6344 15.9648 16.6176C15.7848 16.584 15.54 16.5408 15.2328 16.5408C15.0576 16.5408 14.8776 16.5576 14.7024 16.584C14.316 16.6488 14.004 16.872 13.6752 17.1024C13.2288 17.4144 12.7728 17.7408 12.0696 17.7408C12.0408 17.7408 12.0096 17.7408 11.9808 17.736H11.9112C11.208 17.736 10.752 17.4096 10.3056 17.0976C9.97676 16.8624 9.66236 16.644 9.27837 16.5792C9.09837 16.5504 8.91837 16.536 8.74797 16.536C8.43597 16.536 8.19117 16.584 8.01597 16.6176C7.91757 16.6392 7.83117 16.6512 7.77597 16.6512C7.72797 16.6512 7.72797 16.6464 7.72077 16.6176C7.69197 16.524 7.67276 16.4256 7.65116 16.3344C7.59596 16.0776 7.54796 15.8544 7.35116 15.8256C6.09596 15.6336 5.89437 15.372 5.86077 15.3C5.85597 15.288 5.85117 15.2784 5.85117 15.2712C7.72557 14.964 8.55837 13.0872 8.60877 12.9624C8.73837 12.7008 8.75757 12.4704 8.67837 12.2736C8.52957 11.9232 8.08796 11.7864 7.79516 11.6904C7.72556 11.6688 7.67036 11.652 7.62716 11.6352C7.25036 11.4864 7.13036 11.3352 7.14716 11.2464C7.16876 11.1384 7.34876 11.0328 7.50716 11.0328C7.54076 11.0328 7.57677 11.0376 7.59597 11.0496C7.85277 11.1696 8.09276 11.2344 8.29916 11.2344C8.62556 11.2344 8.76957 11.0856 8.78637 11.0664L8.81996 11.028L8.81516 10.9776C8.80556 10.8528 8.80316 10.7256 8.79356 10.5912C8.74316 9.74875 8.67357 8.70235 8.93037 8.12395C9.71037 6.37195 11.3664 6.23995 11.856 6.23995H12.0792H12.1176Z" fill="black"/>
</g>
</g>
</g>
<defs>
<clipPath id="clip0_2246_2920">
<rect width="24" height="24" fill="white"/>
</clipPath>
<clipPath id="clip1_2246_2920">
<rect width="24" height="24" fill="white"/>
</clipPath>
</defs>
</svg>
