<svg width="24" height="24" viewBox="0 0 24 24" fill="none" xmlns="http://www.w3.org/2000/svg">
<path d="M12 24C18.6274 24 24 18.6274 24 12C24 5.37258 18.6274 -4.91265e-09 12 -3.16478e-09C5.37258 -1.41692e-09 -1.37112e-08 5.37258 -3.06249e-08 12C-4.75385e-08 18.6274 5.37258 24 12 24Z" fill="url(#paint0_linear_2246_2850)"/>
<path fill-rule="evenodd" clip-rule="evenodd" d="M5.43209 11.8733C8.93032 10.3492 11.2631 9.34438 12.4302 8.85894C15.7627 7.47285 16.4552 7.23205 16.9065 7.22408C17.0058 7.22235 17.2278 7.24696 17.3715 7.36363C17.5848 7.53669 17.586 7.91235 17.5624 8.16097C17.3817 10.0585 16.6003 14.6631 16.2028 16.7884C16.0346 17.6876 15.7033 17.9892 15.3827 18.0186C14.6859 18.0828 14.1567 17.5581 13.4817 17.1157C12.4256 16.4233 11.8289 15.9924 10.8037 15.3168C9.61896 14.5361 10.387 14.107 11.0622 13.4057C11.2389 13.2222 14.3093 10.4294 14.3687 10.176C14.3762 10.1443 14.3831 10.0262 14.3129 9.96388C14.2427 9.90154 14.1392 9.92282 14.0644 9.93978C13.9585 9.96383 12.2713 11.079 9.00279 13.2853C8.52387 13.6142 8.09009 13.7744 7.70145 13.766C7.27296 13.7568 6.44881 13.5238 5.8361 13.3246C5.0846 13.0804 4.48732 12.9512 4.53935 12.5363C4.56645 12.3202 4.86401 12.0992 5.43209 11.8733Z" fill="white"/>
<defs>
<linearGradient id="paint0_linear_2246_2850" x1="12" y1="-3.16478e-09" x2="12" y2="23.8125" gradientUnits="userSpaceOnUse">
<stop stop-color="#2AABEE"/>
<stop offset="1" stop-color="#229ED9"/>
</linearGradient>
</defs>
</svg>
