<svg width="100" height="100" viewBox="0 0 100 100" fill="none" xmlns="http://www.w3.org/2000/svg">
<circle cx="50" cy="50" r="49" fill="white" stroke="#8C8C8C" stroke-width="2" stroke-dasharray="8 8"/>
<g clip-path="url(#clip0_2540_1499)">
<path d="M51 46C55.4183 46 59 42.4183 59 38C59 33.5817 55.4183 30 51 30C46.5817 30 43 33.5817 43 38C43 42.4183 46.5817 46 51 46Z" fill="#8C8C8C"/>
<path d="M51 48.666C44.3756 48.6734 39.0074 54.0416 39 60.666C39 61.4024 39.5969 61.9993 40.3333 61.9993H61.6666C62.403 61.9993 62.9999 61.4024 62.9999 60.666C62.9926 54.0416 57.6244 48.6733 51 48.666Z" fill="#8C8C8C"/>
</g>
<defs>
<clipPath id="clip0_2540_1499">
<rect width="32" height="32" fill="white" transform="translate(35 30)"/>
</clipPath>
</defs>
</svg>
