<svg width="24" height="24" viewBox="0 0 24 24" fill="none" xmlns="http://www.w3.org/2000/svg">
<g clip-path="url(#clip0_2246_2830)">
<path d="M12 24C5.3736 24 0 18.6264 0 12C0 5.3736 5.3736 0 12 0C18.6264 0 24 5.3736 24 12C24 18.6264 18.6264 24 12 24Z" fill="#25D366"/>
<path fill-rule="evenodd" clip-rule="evenodd" d="M17.6136 6.41284C16.1256 4.92244 14.1432 4.10164 12.0336 4.09924C7.6872 4.09924 4.1472 7.63684 4.1472 11.9856C4.1472 13.3752 4.5096 14.7336 5.2008 15.9288L4.0824 20.016L8.2632 18.9192C9.4152 19.548 10.7112 19.8792 12.0312 19.8792H12.0336C16.38 19.8792 19.9176 16.3416 19.92 11.9928C19.9224 9.88564 19.104 7.90324 17.6136 6.41284ZM12.036 18.5472H12.0336C10.8576 18.5472 9.7032 18.2304 8.6976 17.6328L8.4576 17.4912L5.976 18.1416L6.6384 15.7224L6.4824 15.4752C5.8272 14.4312 5.4792 13.2264 5.4792 11.9856C5.4816 8.37124 8.4216 5.43124 12.0384 5.43124C13.7904 5.43124 15.4344 6.11524 16.6728 7.35364C17.9112 8.59204 18.5928 10.2408 18.5904 11.9904C18.5904 15.6072 15.648 18.5472 12.036 18.5472ZM15.6312 13.6368C15.4344 13.5384 14.4648 13.0608 14.2848 12.996C14.1048 12.9312 13.9728 12.8976 13.8408 13.0944C13.7088 13.2912 13.332 13.7352 13.2168 13.8672C13.1016 13.9992 12.9864 14.016 12.7896 13.9176C12.5928 13.8192 11.9568 13.6104 11.2056 12.9384C10.62 12.4152 10.224 11.7696 10.1088 11.5728C9.9936 11.376 10.0968 11.268 10.1952 11.1696C10.284 11.0808 10.392 10.9392 10.4904 10.824C10.5888 10.7088 10.6224 10.6272 10.6872 10.4952C10.752 10.3632 10.7208 10.248 10.6704 10.1496C10.62 10.0512 10.2264 9.08164 10.0632 8.68564C9.9024 8.30164 9.7416 8.35444 9.6192 8.34724C9.504 8.34244 9.372 8.34004 9.2424 8.34004C9.1104 8.34004 8.8968 8.39044 8.7168 8.58724C8.5368 8.78404 8.028 9.26164 8.028 10.2312C8.028 11.2008 8.7336 12.1392 8.832 12.2688C8.9304 12.4008 10.2216 14.3904 12.1992 15.2448C12.6696 15.4488 13.0368 15.5688 13.3224 15.66C13.7952 15.8112 14.2248 15.7896 14.5632 15.7392C14.9424 15.6816 15.7296 15.2616 15.8928 14.8032C16.056 14.3424 16.056 13.9488 16.008 13.8672C15.96 13.7856 15.828 13.7376 15.6312 13.6368Z" fill="white"/>
</g>
<defs>
<clipPath id="clip0_2246_2830">
<rect width="24" height="24" fill="white"/>
</clipPath>
</defs>
</svg>
