<svg width="63" height="69" viewBox="0 0 63 69" fill="none" xmlns="http://www.w3.org/2000/svg">
<path d="M53.7123 3.09662C48.8605 1.03136 47.5918 0.62016 47.0391 0.888273C46.1415 1.34601 31.7066 13.0402 30.5714 14.2604C29.4694 15.4087 29.0537 16.7429 29.436 17.8351C29.5861 18.2533 30.4077 19.1994 31.2249 19.9691C33.6084 22.1158 33.6555 22.1376 33.3569 22.7846C32.9089 23.7551 30.9852 25.1346 23.8661 29.6535C20.1542 31.9953 16.8081 34.2879 16.4579 34.7368C14.9341 36.7368 15.3776 37.9444 18.5041 40.2162C20.1298 41.4027 20.6737 41.959 20.6772 42.571C20.6867 43.6655 19.5584 46.1098 17.859 48.5521C16.1099 51.1023 9.45681 58.4526 5.19378 62.5458C0.526459 67.0192 0.0959578 67.5182 0.193694 68.1738C0.354261 69.2508 1.21607 68.9945 5.46848 66.597C13.3001 62.1453 14.0135 61.777 21.1945 58.1151C31.8857 52.6723 33.4522 51.6949 34.2818 49.8976C34.9787 48.3879 34.4663 47.4537 31.9169 45.6664C30.7129 44.8054 29.7472 43.9236 29.7997 43.6861C29.8355 43.4847 33.1152 41.3358 37.089 38.9842C44.347 34.6601 51.4382 29.9538 53.1523 28.3468C54.3818 27.1702 55.228 25.337 54.8709 24.5617C54.6946 24.2622 53.2452 23.3752 51.5951 22.6134C47.4461 20.6982 47.3063 20.9389 55.2323 15.3535C60.117 11.8961 61.8381 10.3359 62.2067 8.9799C62.7368 7.088 62.1029 6.66459 53.7123 3.09662Z" fill="#FFD352"/>
<path d="M53.7123 3.09662C48.8605 1.03136 47.5918 0.62016 47.0391 0.888273C46.1415 1.34601 31.7066 13.0402 30.5714 14.2604C29.4694 15.4087 29.0537 16.7429 29.436 17.8351C29.5861 18.2533 30.4077 19.1994 31.2249 19.9691C33.6084 22.1158 33.6555 22.1376 33.3569 22.7846C32.9089 23.7551 30.9852 25.1346 23.8661 29.6535C20.1542 31.9953 16.8081 34.2879 16.4579 34.7368C14.9341 36.7368 15.3776 37.9444 18.5041 40.2162C20.1298 41.4027 20.6737 41.959 20.6772 42.571C20.6867 43.6655 19.5584 46.1098 17.859 48.5521C16.1099 51.1023 9.45681 58.4526 5.19378 62.5458C0.526459 67.0192 0.0959578 67.5182 0.193694 68.1738C0.354261 69.2508 1.21607 68.9945 5.46848 66.597C13.3001 62.1453 14.0135 61.777 21.1945 58.1151C31.8857 52.6723 33.4522 51.6949 34.2818 49.8976C34.9787 48.3879 34.4663 47.4537 31.9169 45.6664C30.7129 44.8054 29.7472 43.9236 29.7997 43.6861C29.8355 43.4847 33.1152 41.3358 37.089 38.9842C44.347 34.6601 51.4382 29.9538 53.1523 28.3468C54.3818 27.1702 55.228 25.337 54.8709 24.5617C54.6946 24.2622 53.2452 23.3752 51.5951 22.6134C47.4461 20.6982 47.3063 20.9389 55.2323 15.3535C60.117 11.8961 61.8381 10.3359 62.2067 8.9799C62.7368 7.088 62.1029 6.66459 53.7123 3.09662Z" fill="#FFD55E"/>
</svg>
