<svg width="420" height="309" viewBox="0 0 420 309" fill="none" xmlns="http://www.w3.org/2000/svg">
<path d="M98.183 238.835L93.0669 241.208L80.1486 213.358L85.2647 210.985L93.4109 228.547L96.5298 215.435L102.371 212.726L99.6158 224.086L111.596 232.613L105.755 235.323L98.3608 229.959L97.0007 236.286L98.183 238.835Z" fill="#F8E0BF"/>
<path d="M133.956 205.545L128.635 208.013L119.799 188.963C119.626 188.591 119.391 188.278 119.092 188.025C118.806 187.766 118.485 187.576 118.127 187.455C117.777 187.316 117.408 187.254 117.023 187.267C116.637 187.28 116.258 187.373 115.886 187.545C115.514 187.718 115.198 187.947 114.939 188.233C114.68 188.519 114.484 188.844 114.351 189.207C114.224 189.552 114.168 189.917 114.181 190.303C114.194 190.689 114.287 191.068 114.46 191.44L123.296 210.49L117.957 212.967L109.12 193.916C108.948 193.544 108.718 193.229 108.432 192.969C108.146 192.71 107.825 192.52 107.467 192.4C107.117 192.261 106.748 192.198 106.363 192.211C105.977 192.225 105.598 192.317 105.226 192.49C104.854 192.663 104.538 192.892 104.279 193.178C104.02 193.464 103.824 193.788 103.691 194.152C103.564 194.497 103.508 194.862 103.521 195.248C103.534 195.633 103.627 196.012 103.8 196.384L112.636 215.435L107.297 217.911L98.4603 198.861C97.9483 197.757 97.6725 196.627 97.6331 195.469C97.6003 194.294 97.7767 193.18 98.1624 192.127C98.5547 191.056 99.1397 190.091 99.9172 189.233C100.701 188.357 101.645 187.663 102.749 187.151C103.741 186.69 104.78 186.427 105.865 186.361C106.943 186.283 108.004 186.409 109.046 186.739C109.468 185.73 110.05 184.842 110.795 184.074C111.545 183.289 112.417 182.666 113.409 182.206C114.513 181.694 115.646 181.424 116.809 181.397C117.979 181.352 119.093 181.529 120.152 181.927C121.218 182.307 122.182 182.892 123.046 183.682C123.916 184.453 124.608 185.391 125.12 186.495L133.956 205.545Z" fill="#F8E0BF"/>
<path d="M233.178 209.227C233.747 210.455 234.135 211.714 234.342 213.005C234.556 214.277 234.601 215.545 234.478 216.807C234.35 218.058 234.073 219.279 233.646 220.471C233.214 221.652 232.637 222.763 231.915 223.806C231.193 224.85 230.337 225.797 229.345 226.649C228.36 227.482 227.254 228.184 226.026 228.753L217.989 232.481L205.615 205.803L213.651 202.075C214.879 201.506 216.132 201.121 217.411 200.92C218.695 200.7 219.969 200.652 221.232 200.775C222.494 200.897 223.719 201.181 224.904 201.626C226.085 202.058 227.196 202.635 228.239 203.357C229.277 204.066 230.215 204.92 231.054 205.917C231.9 206.896 232.608 207.999 233.178 209.227ZM227.838 211.704C227.326 210.6 226.635 209.662 225.765 208.89C224.907 208.113 223.945 207.534 222.88 207.154C221.821 206.756 220.704 206.573 219.528 206.606C218.365 206.633 217.232 206.903 216.128 207.415L213.468 208.649L220.889 224.648L223.549 223.414C224.653 222.902 225.594 222.217 226.372 221.359C227.156 220.483 227.741 219.518 228.126 218.465C228.519 217.394 228.695 216.28 228.656 215.123C228.623 213.947 228.35 212.808 227.838 211.704Z" fill="#F8E0BF"/>
<path d="M229.981 90.652C230.493 91.7559 230.763 92.8893 230.79 94.0523C230.817 95.2153 230.634 96.3324 230.242 97.4035C229.856 98.4566 229.277 99.4183 228.506 100.289C227.734 101.159 226.796 101.85 225.692 102.362L212.353 108.55L199.978 81.8718L213.317 75.6845C214.421 75.1724 215.555 74.9029 216.718 74.8759C217.881 74.8488 218.992 75.0343 220.05 75.4324C221.116 75.8123 222.084 76.3882 222.954 77.16C223.825 77.9318 224.516 78.8696 225.028 79.9734C225.258 80.4695 225.426 81.0097 225.531 81.5939C225.636 82.1781 225.677 82.7695 225.653 83.3683C225.629 83.9671 225.536 84.5454 225.373 85.1034C225.21 85.6614 224.977 86.1684 224.677 86.6244C225.22 86.6587 225.76 86.8 226.297 87.0482C226.829 87.284 227.331 87.5862 227.803 87.9548C228.275 88.3235 228.697 88.7457 229.069 89.2214C229.447 89.6791 229.751 90.1559 229.981 90.652ZM215.216 100.734L223.215 97.0231C223.587 96.8505 223.903 96.6212 224.162 96.3352C224.421 96.0492 224.614 95.7337 224.741 95.3887C224.874 95.0256 224.934 94.6512 224.92 94.2654C224.907 93.8797 224.814 93.5008 224.642 93.1287C224.469 92.7566 224.24 92.441 223.954 92.1818C223.668 91.9226 223.346 91.7327 222.989 91.6121C222.638 91.4734 222.27 91.4106 221.884 91.4238C221.498 91.4369 221.119 91.5298 220.747 91.7024L212.748 95.413L215.216 100.734ZM210.271 90.0737L218.271 86.3631C218.643 86.1905 218.958 85.9612 219.218 85.6752C219.477 85.3892 219.67 85.0737 219.796 84.7287C219.929 84.3656 219.989 83.9912 219.976 83.6054C219.957 83.2073 219.861 82.8222 219.688 82.4501C219.516 82.078 219.287 81.7624 219.001 81.5032C218.715 81.244 218.393 81.0541 218.036 80.9335C217.685 80.7948 217.317 80.732 216.931 80.7452C216.545 80.7583 216.166 80.8512 215.794 81.0238L207.794 84.7344L210.271 90.0737Z" fill="#F8E0BF"/>
<path d="M190.362 149.784C191.052 151.272 191.43 152.785 191.495 154.322C191.554 155.847 191.343 157.294 190.863 158.662C190.377 160.018 189.64 161.256 188.653 162.377C187.672 163.48 186.475 164.36 185.061 165.016C183.66 165.666 182.215 166.012 180.728 166.054C179.247 166.077 177.825 165.84 176.464 165.341C175.109 164.824 173.868 164.051 172.742 163.021C171.611 161.978 170.7 160.713 170.009 159.225C169.307 157.712 168.924 156.186 168.859 154.649C168.794 153.112 169.005 151.665 169.491 150.309C169.984 148.935 170.721 147.697 171.701 146.594C172.694 145.485 173.891 144.606 175.293 143.956C176.707 143.3 178.145 142.942 179.609 142.881C181.079 142.801 182.489 143.014 183.839 143.519C185.182 144.011 186.422 144.784 187.56 145.839C188.691 146.882 189.625 148.197 190.362 149.784ZM185.246 152.157C184.866 151.339 184.387 150.664 183.81 150.133C183.239 149.584 182.614 149.181 181.937 148.922C181.253 148.651 180.544 148.536 179.809 148.575C179.08 148.597 178.369 148.768 177.674 149.091C176.98 149.413 176.383 149.848 175.884 150.396C175.391 150.926 175.027 151.539 174.793 152.236C174.565 152.914 174.476 153.649 174.526 154.439C174.571 155.217 174.783 156.016 175.163 156.834C175.519 157.603 175.98 158.256 176.546 158.793C177.111 159.329 177.729 159.736 178.4 160.012C179.083 160.283 179.795 160.42 180.535 160.424C181.282 160.409 182.002 160.24 182.697 159.918C183.391 159.596 183.982 159.164 184.469 158.621C184.968 158.073 185.338 157.457 185.578 156.773C185.819 156.089 185.914 155.351 185.863 154.561C185.826 153.765 185.62 152.963 185.246 152.157Z" fill="#F8E0BF"/>
<path d="M204.669 169.671L199.553 172.045L186.79 144.53L188.018 143.96L191.159 145.419C191.416 144.772 191.729 144.13 192.096 143.492C192.463 142.855 192.875 142.264 193.332 141.721C193.795 141.16 194.305 140.652 194.863 140.197C195.42 139.742 196.022 139.366 196.667 139.066C198.068 138.416 199.501 138.061 200.965 138C202.435 137.921 203.842 138.127 205.185 138.619C206.541 139.105 207.788 139.876 208.925 140.931C210.057 141.973 210.988 143.282 211.719 144.857C212.478 146.494 212.896 148.094 212.972 149.656C213.043 151.206 212.826 152.655 212.322 154.004C211.824 155.336 211.067 156.531 210.051 157.59C209.048 158.643 207.845 159.494 206.444 160.145C205.997 160.352 205.528 160.509 205.035 160.617C204.555 160.719 204.061 160.79 203.552 160.83C203.05 160.852 202.539 160.856 202.019 160.841C201.512 160.82 201.015 160.787 200.527 160.742L204.669 169.671ZM206.621 147.222C206.23 146.378 205.743 145.685 205.159 145.142C204.588 144.593 203.967 144.195 203.295 143.949C202.617 143.691 201.911 143.582 201.176 143.621C200.441 143.661 199.726 143.842 199.031 144.164C198.337 144.486 197.737 144.915 197.232 145.451C196.739 145.981 196.373 146.588 196.132 147.272C195.886 147.944 195.782 148.678 195.82 149.474C195.87 150.264 196.091 151.081 196.482 151.925C196.856 152.731 197.329 153.408 197.9 153.957C198.483 154.501 199.114 154.901 199.791 155.16C200.469 155.418 201.172 155.537 201.9 155.515C202.641 155.488 203.359 155.313 204.054 154.991C204.748 154.669 205.345 154.234 205.844 153.686C206.344 153.138 206.713 152.522 206.954 151.837C207.194 151.153 207.289 150.416 207.239 149.625C207.201 148.829 206.995 148.028 206.621 147.222Z" fill="#F8E0BF"/>
<path d="M390.535 168.118C389.845 166.629 388.887 165.33 387.661 164.219C386.45 163.069 385.106 162.191 383.629 161.584C382.14 160.951 380.584 160.623 378.959 160.602C377.349 160.541 375.799 160.856 374.311 161.547C372.823 162.237 371.531 163.143 370.436 164.264C369.368 165.373 368.571 166.648 368.044 168.087C367.543 169.514 367.353 171.088 367.472 172.809C367.58 174.503 368.065 176.28 368.928 178.14C369.754 179.921 370.779 181.399 372.003 182.576C373.214 183.725 374.533 184.583 375.958 185.149C377.41 185.703 378.916 185.957 380.477 185.911C382.053 185.826 383.585 185.439 385.073 184.748C386.561 184.058 387.809 183.092 388.815 181.85C389.836 180.569 390.591 179.169 391.081 177.65C391.559 176.104 391.757 174.511 391.674 172.87C391.605 171.19 391.226 169.606 390.535 168.118ZM409.08 179.377C410.473 182.381 411.208 185.463 411.286 188.624C411.364 191.785 410.862 194.811 409.781 197.703C408.726 200.582 407.135 203.209 405.008 205.584C402.907 207.948 400.355 209.826 397.352 211.219L391.853 213.673L386.805 202.789L392.224 200.373C393.924 199.584 395.268 198.686 396.255 197.679C397.253 196.699 397.986 195.633 398.452 194.48C398.931 193.354 399.181 192.188 399.204 190.983C399.252 189.765 399.17 188.544 398.957 187.318C398.852 188.207 398.506 189.062 397.919 189.883C397.318 190.678 396.588 191.437 395.728 192.159C394.907 192.895 393.99 193.563 392.976 194.162C391.989 194.749 391.043 195.252 390.14 195.671C387.137 197.064 384.066 197.859 380.927 198.055C377.815 198.239 374.819 197.837 371.938 196.848C369.071 195.82 366.42 194.176 363.982 191.915C361.545 189.655 359.513 186.771 357.886 183.262C356.394 180.047 355.578 176.792 355.439 173.498C355.3 170.204 355.745 167.09 356.775 164.158C357.831 161.214 359.41 158.56 361.511 156.197C363.639 153.821 366.204 151.937 369.207 150.544C370.589 149.903 372.038 149.441 373.554 149.157C375.069 148.874 376.607 148.742 378.166 148.762C379.725 148.781 381.267 148.938 382.792 149.232C384.344 149.513 385.847 149.898 387.3 150.387L389.178 143.364L391.809 142.143L409.08 179.377Z" fill="#F8E0BF"/>
<path d="M134.347 192.459L122.632 197.893L106.111 186.617L104.016 206.529L92.3683 211.931L95.9843 180.924L69.976 163.657L81.6238 158.254L98.1786 169.515L100.24 149.619L111.955 144.185L108.339 175.193L134.347 192.459Z" fill="#F8E0BF"/>
<path d="M87.3129 238.594C88.406 240.95 88.9746 243.264 89.0186 245.534C89.0627 247.805 88.6909 249.913 87.9032 251.86C87.1156 253.808 85.963 255.556 84.4454 257.105C82.9502 258.644 81.204 259.877 79.2066 260.803L59.7487 269.829L55.2671 260.167L74.725 251.142C75.3758 250.84 75.9798 250.437 76.537 249.933C77.1166 249.419 77.5603 248.817 77.8683 248.129C78.1987 247.43 78.3597 246.66 78.3512 245.819C78.3651 244.967 78.143 244.047 77.685 243.06C77.2686 242.162 76.7359 241.455 76.087 240.938C75.4501 240.388 74.7582 240.013 74.0114 239.814C73.2766 239.582 72.5205 239.51 71.7431 239.598C70.9777 239.653 70.2696 239.832 69.6188 240.134L50.161 249.159L40.1843 220.243L69.977 206.423L74.4585 216.085L53.3512 225.876L56.3172 234.563L65.1372 230.472C67.1346 229.545 69.2036 229.008 71.3442 228.861C73.5072 228.703 75.5916 228.963 77.5972 229.642C79.5924 230.298 81.4425 231.376 83.1473 232.877C84.8417 234.354 86.2303 236.26 87.3129 238.594Z" fill="#F8E0BF"/>
<path d="M250.625 157.878L245.546 160.234L238.651 145.369L236.177 146.517L233.829 141.457L236.304 140.309L235.864 139.36C235.294 138.132 234.988 136.872 234.947 135.581C234.918 134.283 235.122 133.05 235.56 131.883C236.005 130.697 236.66 129.624 237.526 128.665C238.387 127.693 239.431 126.922 240.658 126.353L244.472 124.584L246.819 129.644L243.006 131.413C242.46 131.666 241.998 132.001 241.618 132.418C241.246 132.817 240.966 133.271 240.78 133.779C240.601 134.269 240.521 134.796 240.541 135.359C240.555 135.91 240.689 136.459 240.942 137.004L241.382 137.953L247.615 135.062L249.962 140.122L243.73 143.013L250.625 157.878Z" fill="#F8E0BF"/>
<path d="M336.5 81.1356L319.668 64.7317L325.454 62.0479L335.571 72.456L334.142 58.018L339.946 55.3256L341.598 78.7711L336.5 81.1356Z" fill="#F8E0BF"/>
<path d="M381.632 110.877C380.404 111.446 379.144 111.752 377.852 111.794C376.555 111.823 375.31 111.624 374.117 111.198C372.931 110.753 371.852 110.101 370.881 109.24C369.921 108.374 369.157 107.327 368.587 106.099L365.843 100.183L363.369 101.331L361.022 96.2706L363.496 95.1229L359.802 87.1604L364.863 84.8132L368.556 92.7757L376.258 89.2031L378.605 94.2633L370.903 97.8359L373.647 103.752C373.895 104.285 374.227 104.742 374.644 105.121C375.055 105.488 375.515 105.764 376.024 105.95C376.532 106.136 377.071 106.226 377.64 106.218C378.203 106.198 378.751 106.064 379.285 105.817L383.136 104.03L385.483 109.091L381.632 110.877Z" fill="#F8E0BF"/>
<path d="M353.325 27.2861C353.837 28.3899 354.106 29.5233 354.133 30.6863C354.16 31.8493 353.978 32.9664 353.585 34.0376C353.2 35.0906 352.621 36.0523 351.849 36.9227C351.077 37.7931 350.139 38.4844 349.036 38.9964L338.357 43.9497L335.88 38.6104L346.559 33.6571C346.931 33.4845 347.247 33.2552 347.506 32.9692C347.765 32.6832 347.958 32.3677 348.084 32.0227C348.217 31.6596 348.277 31.2852 348.264 30.8995C348.251 30.5137 348.158 30.1348 347.985 29.7627C347.813 29.3906 347.583 29.075 347.297 28.8158C347.011 28.5566 346.69 28.3668 346.332 28.2462C345.982 28.1074 345.613 28.0446 345.228 28.0578C344.842 28.0709 344.463 28.1638 344.091 28.3364L336.817 31.7105L334.34 26.3712L341.614 22.9971C341.986 22.8245 342.302 22.5952 342.561 22.3092C342.82 22.0232 343.013 21.7077 343.139 21.3627C343.272 20.9996 343.332 20.6252 343.319 20.2395C343.3 19.8413 343.205 19.4562 343.032 19.0841C342.859 18.712 342.63 18.3964 342.344 18.1372C342.058 17.878 341.736 17.6882 341.379 17.5676C341.028 17.4288 340.66 17.366 340.274 17.3792C339.889 17.3923 339.51 17.4852 339.138 17.6578L328.459 22.6111L325.982 17.2718L336.661 12.3185C337.765 11.8065 338.898 11.5369 340.061 11.5099C341.224 11.4828 342.335 11.6684 343.394 12.0664C344.459 12.4464 345.427 13.0222 346.298 13.794C347.168 14.5658 347.859 15.5036 348.371 16.6075C348.826 17.5873 349.089 18.6257 349.161 19.7227C349.227 20.8073 349.101 21.868 348.783 22.9046C349.78 23.3315 350.674 23.9266 351.465 24.6899C352.25 25.4409 352.87 26.3063 353.325 27.2861Z" fill="#F8E0BF"/>
<path d="M43.8825 165.411C44.4405 166.614 44.6825 167.85 44.6086 169.121C44.5346 170.391 44.1927 171.619 43.5829 172.806C42.9797 173.975 42.1405 175.058 41.0653 176.054C39.9958 177.063 38.7418 177.9 37.3031 178.568C35.8644 179.235 34.4147 179.651 32.954 179.817C31.4991 179.994 30.1245 179.938 28.83 179.65C27.5423 179.343 26.3896 178.807 25.3722 178.043C24.3547 177.28 23.567 176.296 23.0089 175.093C22.6868 174.398 22.4663 173.679 22.3474 172.936C22.2228 172.18 22.1989 171.43 22.2758 170.686C22.3651 169.936 22.5456 169.204 22.8173 168.49C23.0833 167.764 23.4458 167.084 23.9049 166.449C23.365 166.292 22.8394 166.069 22.328 165.778C21.829 165.482 21.3557 165.144 20.9081 164.764C20.4729 164.378 20.0815 163.957 19.734 163.5C19.3808 163.031 19.0862 162.542 18.8503 162.034C18.3671 160.992 18.1449 159.912 18.1839 158.794C18.2294 157.657 18.4971 156.561 18.9868 155.505C19.4708 154.437 20.1603 153.454 21.0552 152.556C21.9502 151.659 23.0054 150.928 24.2208 150.364C25.4487 149.795 26.6941 149.458 27.9573 149.355C29.2204 149.251 30.4161 149.36 31.5444 149.68C32.6794 149.983 33.6892 150.486 34.5738 151.191C35.4651 151.878 36.1524 152.742 36.6356 153.784C36.8715 154.293 37.0482 154.836 37.1658 155.414C37.2901 155.975 37.3618 156.552 37.3811 157.146C37.3946 157.727 37.347 158.307 37.2383 158.885C37.142 159.457 36.9822 160.006 36.7588 160.532C37.5276 160.597 38.2722 160.756 38.9927 161.01C39.7131 161.264 40.3822 161.601 40.9999 162.023C41.6175 162.445 42.1718 162.941 42.6628 163.512C43.1537 164.083 43.5603 164.716 43.8825 165.411ZM31.6754 156.786C31.4741 156.352 31.1879 155.995 30.8169 155.714C30.4525 155.416 30.0367 155.202 29.5695 155.072C29.1147 154.937 28.6267 154.892 28.1054 154.938C27.5841 154.983 27.0754 155.121 26.5793 155.352C26.0708 155.587 25.6307 155.89 25.259 156.258C24.8873 156.626 24.6002 157.031 24.3976 157.471C24.2075 157.906 24.1024 158.362 24.0823 158.838C24.0688 159.297 24.1628 159.743 24.3641 160.177C24.5655 160.611 24.8455 160.971 25.2041 161.257C25.5751 161.537 25.9852 161.739 26.4342 161.862C26.8956 161.979 27.387 162.015 27.9083 161.969C28.4296 161.923 28.9444 161.783 29.4529 161.547C29.9491 161.317 30.383 161.017 30.7547 160.649C31.1264 160.281 31.4102 159.885 31.6061 159.463C31.8144 159.035 31.9252 158.591 31.9387 158.133C31.9645 157.669 31.8768 157.22 31.6754 156.786ZM38.5113 167.721C38.2352 167.126 37.8427 166.637 37.334 166.255C36.8319 165.855 36.2561 165.572 35.6064 165.407C34.9692 165.235 34.2825 165.184 33.5465 165.254C32.8228 165.319 32.1075 165.515 31.4005 165.843C30.6936 166.171 30.0818 166.59 29.5652 167.101C29.0487 167.612 28.6439 168.169 28.3509 168.772C28.0704 169.369 27.9145 169.992 27.8833 170.639C27.8587 171.269 27.9845 171.881 28.2606 172.476C28.5368 173.072 28.9201 173.557 29.4107 173.932C29.9137 174.302 30.478 174.56 31.1037 174.707C31.7419 174.848 32.4199 174.88 33.1378 174.803C33.85 174.714 34.5596 174.505 35.2665 174.177C35.9735 173.849 36.591 173.442 37.1191 172.956C37.6538 172.452 38.0672 171.914 38.3592 171.341C38.6637 170.763 38.8311 170.165 38.8614 169.548C38.9042 168.926 38.7875 168.317 38.5113 167.721Z" fill="#F8E0BF"/>
<path d="M103.236 281.505C101.861 278.541 100.344 276.57 98.6844 275.591C97.0372 274.607 95.3331 274.524 93.5719 275.341C91.8231 276.152 90.7959 277.495 90.4901 279.37C90.1842 281.245 90.7246 283.677 92.111 286.666C93.486 289.63 94.9909 291.607 96.6256 292.597C98.2603 293.587 99.9521 293.677 101.701 292.865C102.581 292.457 103.288 291.918 103.822 291.249C104.35 290.567 104.682 289.757 104.82 288.819C104.97 287.875 104.916 286.8 104.658 285.594C104.406 284.369 103.932 283.006 103.236 281.505ZM108.315 279.15C109.489 281.68 110.202 283.949 110.455 285.956C110.708 287.964 110.601 289.732 110.134 291.259C109.667 292.787 108.895 294.095 107.817 295.183C106.746 296.252 105.472 297.129 103.996 297.814C102.52 298.499 101.019 298.901 99.4925 299.021C97.9725 299.124 96.4786 298.86 95.0106 298.229C93.5494 297.581 92.137 296.518 90.7735 295.04C89.4042 293.551 88.1385 291.553 86.9764 289.048C85.8028 286.518 85.0923 284.255 84.845 282.26C84.592 280.252 84.6927 278.487 85.1472 276.965C85.6141 275.437 86.3803 274.132 87.4458 273.05C88.5237 271.963 89.8006 271.077 91.2765 270.392C92.7524 269.707 94.2503 269.314 95.7703 269.212C97.2969 269.091 98.7971 269.353 100.271 269.995C101.744 270.638 103.163 271.698 104.527 273.175C105.89 274.653 107.153 276.644 108.315 279.15Z" fill="#F8E0BF"/>
</svg>
