<svg width="159" height="149" viewBox="0 0 159 149" fill="none" xmlns="http://www.w3.org/2000/svg">
<g opacity="0.5" clipPath="url(#clip0_858_725)">
<path d="M60.1718 117.813C59.1048 115.954 56.5767 115.427 54.4835 116.629L52.9485 117.51L49.1807 119.672L53.0217 126.365L58.3245 123.322C60.4177 122.12 61.2387 119.672 60.1718 117.813Z" stroke="black" strokeWidth="3" strokeMiterlimit="10"/>
<path d="M54.7957 112C53.7287 110.141 51.2006 109.615 49.1074 110.816L45.3396 112.979L49.1806 119.672L52.9484 117.509C55.0416 116.308 55.8626 113.86 54.7957 112Z" stroke="black" strokeWidth="3" strokeMiterlimit="10"/>
<path d="M46.3268 139.104L76.4692 121.806L61.1053 95.0339L30.9629 112.332L46.3268 139.104ZM49.1807 119.672L45.3398 112.979L49.1075 110.816C51.2008 109.615 53.7289 110.141 54.7958 112.001C55.8628 113.86 55.0418 116.308 52.9485 117.509L54.4836 116.628C56.5768 115.427 59.1049 115.954 60.1719 117.813C61.2388 119.672 60.4178 122.12 58.3246 123.321L53.0217 126.365L49.1807 119.672Z" stroke="black" strokeWidth="3" strokeMiterlimit="10"/>
<path d="M95.9235 96.3888C97.2038 98.6198 96.2117 101.578 93.6999 103.02C91.188 104.461 88.1332 103.825 86.8528 101.594L83.7943 96.2647C82.514 94.0337 83.506 91.0753 86.0179 89.6337C88.5297 88.1922 91.5846 88.8282 92.8649 91.0592M67.1057 91.5898L82.4697 118.362L112.612 101.064L97.2481 74.2917L67.1057 91.5898Z" stroke="black" strokeWidth="3" strokeMiterlimit="10"/>
<path d="M51.059 67.0222L47.9889 68.7841L50.4984 79.7836L59.29 74.7383L51.059 67.0222Z" stroke="black" strokeWidth="3" strokeMiterlimit="10"/>
<path d="M50.5683 79.7437L51.9523 86.0343L50.4985 79.7837L59.29 74.7384M50.5683 79.7437L50.4287 79.8238M50.5683 79.7437L48.0587 68.7442L51.059 67.0224L59.29 74.7384M59.29 74.7384L59.4296 74.6583M59.29 74.7384L64.0232 79.107M60.7542 52.5612L30.6118 69.8594L45.9758 96.6314L76.1181 79.3332L60.7542 52.5612Z" stroke="black" strokeWidth="3" strokeMiterlimit="10"/>
</g>
<g clipPath="url(#clip1_858_725)">
<path d="M88.1407 83.4724C88.2257 81.0345 88.3107 78.5967 88.4313 76.2208C89.2258 62.0894 90.0204 47.958 90.8505 33.8885C90.9135 33.0285 91.0121 32.2305 91.1106 31.4325C91.8467 31.4221 92.5471 31.3496 93.2831 31.3391C93.7742 31.3868 94.2996 31.3325 94.7907 31.3801C94.7277 32.2401 94.7003 33.1621 94.6373 34.022C94.4825 36.5 94.2922 38.9159 94.1374 41.3938C94.01 42.9498 93.988 44.5276 93.9304 46.0436C93.7482 49.4434 93.566 52.8433 93.3482 56.1812C93.1345 60.011 92.9208 63.8408 92.7071 67.6707C92.551 69.9846 92.4304 72.3605 92.344 74.6344C92.2167 76.1903 92.1947 77.7682 92.0673 79.3242C92.0399 80.2461 92.0125 81.1681 92.0206 82.152C91.461 82.3084 90.8673 82.5667 90.3077 82.7231C89.5731 82.8975 88.982 83.4839 88.1407 83.4724Z" fill="#45AAB8"/>
<path d="M102.359 30.992C101.93 38.4877 101.537 46.0454 101.074 53.6431C100.589 62.8187 100.104 71.9943 99.619 81.1699C99.656 81.3959 99.5875 81.5999 99.5191 81.8039C98.5027 81.8106 97.5587 82.1052 96.6503 82.4617C96.5449 82.4398 96.5449 82.4398 96.4396 82.4179C96.1947 82.476 95.88 82.5742 95.6351 82.6324C95.7036 82.4283 95.7378 82.3263 95.8062 82.1223C95.8651 80.7704 95.9241 79.4184 96.0185 78.1285C96.1378 75.5886 96.3623 73.0706 96.4815 70.5308C96.5994 67.8269 96.7528 65.185 96.8707 62.4811C96.9611 60.6992 97.1213 58.8772 97.2117 57.0953C97.4309 53.9214 97.5447 50.7256 97.694 47.5917C97.8817 44.8478 98.0337 42.042 98.2214 39.298C98.3789 37.1481 98.4666 35.0382 98.5187 32.8664C98.5844 32.3344 98.5448 31.7804 98.5052 31.2265C99.1003 31.1321 99.731 31.0997 100.326 31.0053C100.957 30.9729 101.693 30.9624 102.359 30.992Z" fill="#047B8E"/>
<path d="M102.886 22.6983C102.888 22.8623 102.888 22.8623 102.853 22.9643C102.763 24.7462 102.567 26.5062 102.477 28.2882C101.846 28.3206 101.11 28.331 100.479 28.3634C99.8487 28.3958 99.2878 28.3882 98.6215 28.3586C98.6557 28.2566 98.7953 28.1765 98.7597 28.1146C98.8844 26.2306 98.9392 24.3867 98.9941 22.5428C99.975 22.4742 100.851 22.3837 101.831 22.315C102.217 22.3408 102.535 22.5706 102.886 22.6983Z" fill="#055868"/>
<path d="M91.2642 28.7912C91.2628 28.6272 91.1917 28.5032 91.2601 28.2992C91.3506 26.5173 91.4752 24.6334 91.5656 22.8514C91.9158 22.8152 92.2661 22.779 92.511 22.7208C92.7216 22.7647 92.8625 22.8486 93.0377 22.8305C93.7737 22.82 94.4741 22.7476 95.2101 22.7371C95.1854 23.987 95.1251 25.175 95.1004 26.4249C95.0716 27.1828 95.1468 27.7987 95.118 28.5567C94.4873 28.5891 93.8922 28.6835 93.2616 28.7159C92.5255 28.7264 91.8949 28.7588 91.2642 28.7912Z" fill="#388691"/>
<path d="M96.6502 82.4616C97.5586 82.105 98.5381 81.8724 99.5191 81.8038C99.4506 82.0078 99.4178 82.2738 99.3494 82.4778C98.2547 85.7423 97.1244 88.9448 95.9244 92.1873C95.4796 93.5135 94.8598 94.8578 94.4151 96.184C94.3098 96.162 94.2742 96.1001 94.1688 96.0781C94.3057 95.6701 94.3714 95.1381 94.474 94.832C95.0583 93.4258 95.1159 91.9098 95.4197 90.4997C95.7577 88.9876 96.026 87.5156 96.2942 86.0435C96.5652 84.8994 96.8006 83.6934 97.0018 82.5893C96.8609 82.5054 96.7555 82.4835 96.6502 82.4616Z" fill="#E9C293"/>
<path d="M88.1407 83.4725C88.9821 83.484 89.5731 82.8976 90.342 82.6212C90.4185 83.4011 90.5306 84.2429 90.6072 85.0228C90.7234 86.3566 90.8738 87.5884 90.99 88.9223C91.1061 90.2561 91.3277 91.6118 91.5492 92.9676C91.7338 94.0974 91.9184 95.2272 92.1385 96.4189C91.999 96.499 91.8937 96.4771 91.7541 96.5572C91.4669 95.7334 91.1797 94.9097 90.9622 94.0459C90.0226 90.6308 89.1884 87.2376 88.2488 83.8224C88.283 83.7204 88.2118 83.5965 88.1407 83.4725Z" fill="#FCE2C0"/>
<path d="M91.7541 96.5576C91.8936 96.4775 91.999 96.4994 92.1385 96.4193C92.2439 96.4413 92.3492 96.4632 92.4545 96.4851C92.7692 96.3869 93.1536 96.2487 93.5039 96.2125C93.7487 96.1543 93.9239 96.1362 94.1687 96.0781C94.2741 96.1 94.3096 96.162 94.415 96.1839C94.4163 96.3479 94.4177 96.5119 94.3835 96.6139C94.0756 97.532 93.7322 98.3882 93.4243 99.3063C93.3559 99.5103 93.0768 99.6705 92.8674 99.7906C92.7977 99.8307 92.5159 99.6628 92.4447 99.5389C92.2615 98.5731 92.0427 97.5453 91.7541 96.5576Z" fill="#454444"/>
<path d="M100.479 28.3632C101.11 28.3308 101.846 28.3203 102.477 28.2879C102.449 29.2099 102.386 30.0699 102.359 30.9918C101.693 30.9622 100.992 31.0347 100.326 31.0051C100.353 30.0832 100.416 29.2232 100.479 28.3632Z" fill="#BBBDBE"/>
<path d="M91.2642 28.791C91.8949 28.7586 92.6309 28.7481 93.2616 28.7157C93.3039 29.5976 93.2409 30.4576 93.2833 31.3395C92.5473 31.3499 91.8468 31.4224 91.1108 31.4329C91.1382 30.5109 91.2012 29.6509 91.2642 28.791Z" fill="#E4E6E6"/>
<path d="M95.1047 22.7155C94.3687 22.7259 93.6682 22.7984 92.9322 22.8089C92.7571 22.827 92.6162 22.7431 92.4055 22.6992C92.79 22.561 93.1744 22.4227 93.5944 22.3465C96.6042 21.7726 99.514 21.8327 102.392 22.3228C102.673 22.3266 102.989 22.3924 102.747 22.7785C102.395 22.6508 102.113 22.4829 101.797 22.4172C100.886 22.4457 99.9408 22.5763 98.9599 22.645C97.7327 22.6078 96.4714 22.6726 95.1047 22.7155Z" fill="#104D58"/>
<path d="M102.853 22.9638C102.818 22.9018 102.888 22.8618 102.852 22.7998C102.852 22.7998 102.818 22.9018 102.853 22.9638Z" fill="#104D58"/>
<path d="M98.4694 31.1634C98.5091 31.7173 98.5131 32.2093 98.483 32.8032C98.3953 34.9131 98.2733 37.125 98.1856 39.2349C97.998 41.9789 97.8459 44.7847 97.6583 47.5286C97.4392 50.7025 97.3254 53.8984 97.176 57.0322C97.0856 58.8141 96.9254 60.6361 96.8349 62.418C96.7171 65.1219 96.5992 67.8258 96.4458 70.4676C96.3266 73.0075 96.1376 75.5874 95.9828 78.0654C95.9239 79.4173 95.8649 80.7692 95.7704 82.0592C95.7718 82.2232 95.7034 82.4272 95.5994 82.5693C95.4941 82.5473 95.3545 82.6274 95.2492 82.6055C94.5433 82.022 93.5638 82.2546 92.6868 82.1812C92.6513 82.1192 92.6513 82.1192 92.5815 82.1592C92.3708 82.1154 92.1601 82.0715 92.0192 81.9876C92.0467 81.0657 92.0385 80.0818 92.066 79.1598C92.088 77.5819 92.2153 76.026 92.3427 74.47C92.4988 72.1561 92.6194 69.7802 92.7058 67.5063C92.9195 63.6765 93.1332 59.8466 93.3469 56.0168C93.5291 52.6169 93.7113 49.2171 93.9291 45.8792C94.0564 44.3232 94.0784 42.7453 94.136 41.2294C94.2908 38.7515 94.4812 36.3356 94.6359 33.8577C94.6989 32.9977 94.7264 32.0757 94.7894 31.2158C95.42 31.1834 96.1205 31.1109 96.7512 31.0785C97.3476 31.1481 97.9085 31.1557 98.4694 31.1634Z" fill="#1A93A5"/>
<path d="M92.0548 82.0504C92.2655 82.0942 92.4762 82.1381 92.6171 82.222C92.5856 82.652 92.5883 82.9799 92.5568 83.4099C92.6347 84.3538 92.7824 85.2576 92.755 86.1796C92.7658 87.4915 92.7411 88.7414 92.7164 89.9913C92.7204 90.4833 92.7245 90.9752 92.7286 91.4672C92.6971 91.8972 92.6656 92.3272 92.6341 92.7572C92.6723 93.1471 92.816 93.559 92.7845 93.989C92.7215 94.8489 92.5531 95.687 92.4901 96.547C92.3848 96.525 92.2794 96.5031 92.1741 96.4812C91.9895 95.3514 91.7693 94.1596 91.5847 93.0298C91.3632 91.6741 91.247 90.3402 91.0255 88.9845C90.8396 87.6907 90.7589 86.4189 90.6428 85.085C90.5662 84.3052 90.4541 83.4633 90.3775 82.6834C90.9015 82.4651 91.4611 82.3087 92.0548 82.0504Z" fill="#FDD5A5"/>
<path d="M96.7171 31.1818C96.0864 31.2142 95.386 31.2866 94.7553 31.3191C94.2642 31.2714 93.7388 31.3257 93.2477 31.278C93.2053 30.3961 93.2683 29.5362 93.226 28.6542C93.8567 28.6218 94.4518 28.5275 95.0825 28.4951C95.6434 28.5027 96.274 28.4703 96.835 28.4779C96.8075 29.3999 96.7445 30.2598 96.7171 31.1818Z" fill="#DBDDDE"/>
<path d="M95.2847 82.6677C95.39 82.6896 95.5296 82.6095 95.6349 82.6314C95.8798 82.5733 96.1944 82.4751 96.4393 82.4169C96.5447 82.4389 96.5447 82.4389 96.65 82.4608C96.7553 82.4827 96.966 82.5266 97.1069 82.6105C96.836 83.7546 96.565 84.8987 96.3994 86.0647C96.1311 87.5367 95.8984 89.0708 95.5248 90.5209C95.1513 91.971 95.1635 93.4469 94.5792 94.8532C94.4068 95.1993 94.4108 95.6912 94.274 96.0993C94.0291 96.1574 93.854 96.1755 93.6091 96.2337C93.8063 94.6377 94.0389 93.1037 94.2361 91.5077C94.4003 90.1777 94.529 88.7857 94.588 87.4337C94.7864 86.0017 94.8796 84.5478 95.0781 83.1158C95.0767 82.9518 95.1807 82.8097 95.2847 82.6677Z" fill="#F1C793"/>
<path d="M96.717 31.1809C96.78 30.3209 96.8074 29.399 96.8704 28.539C97.4655 28.4446 98.0265 28.4523 98.6216 28.3579C99.2522 28.3255 99.8131 28.3331 100.479 28.3627C100.416 29.2227 100.389 30.1446 100.326 31.0046C99.7308 31.099 99.1002 31.1314 98.5051 31.2257C97.9086 31.1561 97.3477 31.1485 96.717 31.1809Z" fill="#CFD1D2"/>
<path d="M96.6501 82.4618C96.5448 82.4399 96.5448 82.4399 96.4395 82.418C96.475 82.4799 96.5448 82.4399 96.6501 82.4618Z" fill="#E9C293"/>
<path d="M98.6216 28.3585C98.0264 28.4529 97.4655 28.4453 96.8704 28.5397C96.3095 28.532 95.6789 28.5644 95.1179 28.5568C95.077 27.8389 95.036 27.121 95.1003 26.425C95.1251 25.1751 95.1853 23.9871 95.2101 22.7372C96.507 22.7344 97.8381 22.6295 99.135 22.6267C99.0802 24.4706 98.9555 26.3545 98.9007 28.1984C98.8309 28.2384 98.6913 28.3185 98.6216 28.3585Z" fill="#14707F"/>
<path d="M95.2847 82.6671C95.1807 82.8092 95.0767 82.9512 95.0425 83.0533C94.8441 84.4853 94.6456 85.9173 94.5524 87.3712C94.3882 88.7012 94.3292 90.0532 94.2005 91.4451C94.0034 93.0411 93.7707 94.5752 93.5736 96.1712C93.2589 96.2694 92.8745 96.4076 92.5243 96.4438C92.5873 95.5839 92.7556 94.7458 92.8186 93.8858C92.8501 93.4559 92.7065 93.044 92.6682 92.654C92.6299 92.2641 92.7312 91.7941 92.7627 91.3641C92.7586 90.8721 92.7546 90.3802 92.7505 89.8882C92.7752 88.6383 92.8342 87.2864 92.7891 86.0765C92.8165 85.1545 92.6689 84.2507 92.591 83.3068C92.5527 82.9169 92.6197 82.5489 92.6512 82.1189L92.7566 82.1408C93.6349 82.3782 94.5788 82.0836 95.2847 82.6671Z" fill="#FCD19C"/>
<path d="M92.7225 82.2426L92.6172 82.2207C92.687 82.1807 92.7225 82.2426 92.7225 82.2426Z" fill="#FDD5A5"/>
</g>
<defs>
<clipPath id="clip0_858_725">
<rect width="80.4473" height="71.4521" fill="white" transform="translate(9.90674 79.6816) rotate(-29.8508)"/>
</clipPath>
<clipPath id="clip1_858_725">
<rect width="80.4473" height="71.4521" fill="white" transform="translate(43.646 47.9629) rotate(-29.8508)"/>
</clipPath>
</defs>
</svg>
