<svg width="100" height="100" viewBox="0 0 100 100" fill="none" xmlns="http://www.w3.org/2000/svg">
<path d="M42.6304 13.1474C42.351 12.8724 42.1288 12.5447 41.9767 12.1833C41.8245 11.8219 41.7455 11.434 41.744 11.0419C41.7425 10.6498 41.8187 10.2613 41.9682 9.89877C42.1176 9.53627 42.3373 9.20694 42.6147 8.92978C42.8921 8.65263 43.2215 8.43313 43.5841 8.28394C43.9468 8.13476 44.3353 8.05884 44.7274 8.06058C45.1195 8.06231 45.5074 8.14166 45.8686 8.29404C46.2299 8.44643 46.5575 8.66883 46.8323 8.94843L54.07 16.1861L54.1046 16.2197C54.3803 16.4951 54.5989 16.8221 54.7479 17.1822C54.8969 17.5422 54.9734 17.9281 54.9729 18.3177C54.9736 18.7161 54.8939 19.1104 54.7386 19.4772C54.5833 19.844 54.3555 20.1757 54.069 20.4524L46.8314 27.69C46.5563 27.9695 46.2287 28.1917 45.8674 28.344C45.506 28.4962 45.1181 28.5753 44.726 28.5769C44.3339 28.5784 43.9454 28.5023 43.5828 28.353C43.2203 28.2036 42.8909 27.984 42.6137 27.7067C42.3365 27.4294 42.1169 27.1 41.9676 26.7374C41.8183 26.3748 41.7423 25.9863 41.744 25.5942C41.7456 25.2021 41.8249 24.8142 41.9772 24.4529C42.1295 24.0916 42.3518 23.764 42.6314 23.489L44.9957 21.1247C37.5689 22.3597 30.797 26.1233 25.8267 31.7784C20.8564 37.4334 17.9931 44.6324 17.7216 52.1563C17.4501 59.6802 19.787 67.0668 24.3368 73.0654C28.8865 79.064 35.3694 83.306 42.688 85.0732C50.0065 86.8403 57.7108 86.024 64.4965 82.7625C71.2822 79.501 76.7323 73.9947 79.9241 67.1759C83.1158 60.3571 83.853 52.6448 82.0109 45.3448C80.1687 38.0448 75.8605 31.6057 69.8155 27.1177C69.1829 26.6481 68.7628 25.9464 68.6476 25.167C68.5324 24.3876 68.7315 23.5944 69.2012 22.9618C69.6708 22.3292 70.3725 21.9091 71.1519 21.7939C71.9313 21.6787 72.7245 21.8778 73.3571 22.3474C80.5236 27.668 85.6241 35.3083 87.7902 43.9671C89.9564 52.6259 89.0541 61.7678 85.237 69.8361C81.4199 77.9044 74.9241 84.4 66.8558 88.217C58.7875 92.0339 49.6455 92.936 40.9867 90.7698C32.328 88.6035 24.6878 83.5028 19.3673 76.3363C14.0469 69.1697 11.3751 60.3805 11.8069 51.4653C12.2388 42.5501 15.7476 34.0603 21.7359 27.4415C27.7242 20.8228 35.8216 16.4844 44.6492 15.1653L42.6304 13.1474Z" fill="white"/>
<path d="M41.1887 37.1736C41.1887 33.7053 37.0471 31.9122 34.5184 34.2855L29.4907 39.0043C29.2054 39.271 28.9755 39.5914 28.8141 39.947C28.6528 40.3027 28.5632 40.6867 28.5504 41.077C28.5377 41.4674 28.602 41.8564 28.7398 42.2219C28.8775 42.5873 29.086 42.922 29.3533 43.2068C29.6206 43.4916 29.9414 43.7209 30.2973 43.8815C30.6533 44.0421 31.0375 44.131 31.4279 44.143C31.8182 44.155 32.2072 44.0899 32.5723 43.9514C32.9375 43.8129 33.2718 43.6038 33.5561 43.336L35.2481 41.7478V69.132C35.2481 69.9198 35.5611 70.6753 36.1181 71.2323C36.6752 71.7894 37.4307 72.1023 38.2184 72.1023C39.0062 72.1023 39.7617 71.7894 40.3187 71.2323C40.8758 70.6753 41.1887 69.9198 41.1887 69.132V37.1736Z" fill="white"/>
<path fill-rule="evenodd" clip-rule="evenodd" d="M48.9414 44.6833C48.9414 39.0932 53.4731 34.5625 59.0632 34.5625C64.6533 34.5625 69.184 39.0932 69.184 44.6833V61.9853C69.184 67.5744 64.6523 72.1061 59.0632 72.1061C53.4741 72.1061 48.9414 67.5744 48.9414 61.9853V44.6833ZM63.2434 44.6833V61.9853C63.2434 63.0939 62.803 64.1572 62.019 64.9411C61.2351 65.7251 60.1718 66.1655 59.0632 66.1655C57.9545 66.1655 56.8913 65.7251 56.1073 64.9411C55.3234 64.1572 54.883 63.0939 54.883 61.9853V44.6833C54.883 43.5746 55.3234 42.5114 56.1073 41.7274C56.8913 40.9435 57.9545 40.5031 59.0632 40.5031C60.1718 40.5031 61.2351 40.9435 62.019 41.7274C62.803 42.5114 63.2434 43.5746 63.2434 44.6833Z" fill="white"/>
</svg>
