<svg width="100" height="71" viewBox="0 0 100 71" fill="none" xmlns="http://www.w3.org/2000/svg">
<path d="M73.4375 49.0156V61.5L59.375 63.1875L58.8906 63.125C56.5312 62.5781 54.6875 57.9219 54.6875 52.25C54.6875 46.2031 56.7812 41.3125 59.375 41.3125L97.9531 36.6875C95.5937 37.2344 93.75 41.8906 93.75 47.5625C93.75 53.6094 95.8438 58.5 98.4375 58.5L82.8125 60.375V47.875L73.4375 49V49.0156Z" fill="#EAEAEA"/>
<path d="M82.8125 60.375V67.875L78.125 61.625L73.4375 69.4375V49.0156L82.8125 47.875V60.375Z" fill="#ED1C24"/>
<path d="M98.4375 58.5L97.3125 58.6406L82.8125 60.375V55.6875C84.5638 55.4643 86.1707 54.6016 87.3244 53.2653C88.4781 51.9291 89.0971 50.2135 89.0625 48.4484V48.1406C89.074 47.4333 88.9346 46.7317 88.6538 46.0824C88.3729 45.4332 87.957 44.8512 87.4337 44.3752C86.9104 43.8992 86.2917 43.5401 85.6189 43.3219C84.946 43.1036 84.2343 43.0312 83.5313 43.1094L59.375 46C58.8477 46.0543 58.3422 46.2386 57.9037 46.5364C57.4652 46.8342 57.1074 47.2362 56.8625 47.7062C56.019 48.9941 55.5504 50.4911 55.509 52.03C55.4676 53.5689 55.8551 55.089 56.6281 56.4203C56.8504 56.8913 57.1653 57.3126 57.5541 57.6592C57.9428 58.0058 58.3974 58.2705 58.8906 58.4375L59.375 58.5L73.4375 56.8125V61.5L59.375 63.1875L58.8906 63.125C58.7381 63.094 58.5908 63.0414 58.4531 62.9688C58.3112 62.9025 58.1753 62.8241 58.0469 62.7344C58.0349 62.7332 58.0238 62.7277 58.0156 62.7188C57.9063 62.6406 57.7813 62.5469 57.6719 62.4531C57.5143 62.3083 57.368 62.1516 57.2344 61.9844C57.1023 61.8324 56.9821 61.6705 56.875 61.5C56.6332 61.1473 56.419 60.7764 56.2344 60.3906C56.1094 60.125 56 59.8437 55.875 59.5469C55.7969 59.3281 55.7188 59.0937 55.6406 58.8594C55.544 58.5942 55.4657 58.3228 55.4063 58.0469C55.3281 57.7812 55.2656 57.5 55.2031 57.2188C55.0062 56.3544 54.8704 55.4772 54.7969 54.5937V54.5469C54.7207 53.7837 54.6842 53.017 54.6875 52.25C54.6875 46.2031 56.7813 41.3125 59.375 41.3125L97.9531 36.6875C97.8961 36.6926 97.8418 36.7144 97.7969 36.75C95.5156 37.4375 93.75 42.0156 93.75 47.5625C93.75 53.6094 95.8438 58.5 98.4375 58.5Z" fill="#DAD4D4"/>
<path d="M79.6875 48.25V51.1016C79.7095 53.0737 79.1289 55.0056 78.0235 56.639C76.9182 58.2723 75.3405 59.5294 73.5016 60.2422L73.4375 60.2656V69.4375L78.125 61.625L82.8125 67.875V47.875L79.6875 48.25Z" fill="#C1272D"/>
<path d="M98.4375 8.5L98.0938 8.54688L59.375 13.1875L21.3281 8.70313H21.3125L14.1406 7.85938L6.25 6.9375L42.5469 2.57813C44.3841 2.35937 46.2409 2.35937 48.0781 2.57813L98.4375 8.5Z" fill="#7070F2"/>
<path d="M98.4375 22.5625L98.0938 22.6094L59.375 27.25C59.2588 27.2508 59.143 27.2351 59.0312 27.2031C57.4687 26.8125 56.25 23.8437 56.25 20.2187C56.25 16.3281 57.6562 13.1875 59.375 13.1875L98.0938 8.54688C96.5312 8.9375 95.3125 11.9062 95.3125 15.5312C95.3125 19.4219 96.7188 22.5625 98.4375 22.5625Z" fill="#EAEAEA"/>
<path d="M98.4375 36.625C98.2739 36.6227 98.1108 36.6437 97.9531 36.6875L59.375 41.3125C59.2588 41.3134 59.143 41.2976 59.0312 41.2656C57.4687 40.875 56.25 37.9063 56.25 34.2813C56.25 30.3906 57.6562 27.25 59.375 27.25L98.0938 22.6094C96.5312 23 95.3125 25.9688 95.3125 29.5938C95.3125 33.4844 96.7188 36.625 98.4375 36.625Z" fill="#EAEAEA"/>
<path d="M98.0937 22.6094C97.0937 22.8594 96.2344 24.1562 95.75 26.0156L59.375 30.375C57.9062 30.375 56.6562 32.6875 56.3281 35.8125C56.2812 35.3281 56.25 34.8125 56.25 34.2812C56.25 30.3906 57.6562 27.25 59.375 27.25L98.0937 22.6094ZM98.0937 8.54688C97.0937 8.79688 96.2344 10.0937 95.75 11.9531L59.375 16.3125C57.9062 16.3125 56.6562 18.625 56.3281 21.75C56.2812 21.2656 56.25 20.75 56.25 20.2187C56.25 16.3281 57.6562 13.1875 59.375 13.1875L98.0937 8.54688Z" fill="#DAD4D4"/>
<path d="M21.3281 8.70312L59.375 13.1875C57.6562 13.1875 56.25 16.3281 56.25 20.2188C56.25 23.8438 57.4687 26.8125 59.0312 27.2031L47.8125 25.8906L40.9375 25.0781L20.5156 22.6719C19.8017 20.63 19.4681 18.4746 19.5312 16.3125C19.5312 12.6406 20.2812 9.54688 21.3125 8.70312H21.3281Z" fill="#5E5EEA"/>
<path d="M59.0312 27.2031C59.143 27.2351 59.2588 27.2508 59.375 27.25C57.6562 27.25 56.25 30.3906 56.25 34.2812C56.25 37.9062 57.4687 40.875 59.0312 41.2656L49.4531 40.1406L46.8437 39.8438C46.0248 37.832 45.6362 35.671 45.7031 33.5C45.7031 29.7969 46.6094 26.6875 47.8125 25.8906L59.0312 27.2031Z" fill="#99E0D4"/>
<path d="M59.0312 41.2656C59.143 41.2976 59.2588 41.3133 59.375 41.3125C56.7812 41.3125 54.6875 46.2031 54.6875 52.25C54.6875 57.9219 56.5312 62.5781 58.8906 63.125L49.5625 62.0312C47.9844 60.0937 46.875 55.8906 46.875 51.0156C46.875 46.2656 47.9219 42.1562 49.4531 40.1406L59.0312 41.2656Z" fill="#FFCA3A"/>
<path d="M49.5625 62.0312L43.25 61.2969C41.6875 59.3125 40.625 55.1562 40.625 50.3594C40.625 45.5625 41.7031 41.3906 43.2656 39.4219L46.8437 39.8438L49.4531 40.1406C47.9219 42.1562 46.875 46.2656 46.875 51.0156C46.875 55.8906 47.9844 60.0937 49.5625 62.0312Z" fill="#F7931E"/>
<path d="M40.9375 25.0781L47.8125 25.8906C46.6094 26.6875 45.7031 29.7969 45.7031 33.5C45.6362 35.671 46.0248 37.832 46.8438 39.8438L43.2656 39.4219L40.7188 39.125C39.4741 36.9433 38.8981 34.4439 39.0625 31.9375C39.0402 29.5215 39.6894 27.1468 40.9375 25.0781Z" fill="#7070F2"/>
<path d="M40.7188 39.125L43.2656 39.4219C41.7031 41.3906 40.625 45.5469 40.625 50.3594C40.625 55.1719 41.6875 59.3125 43.25 61.2969L17.9063 58.3125C16.2742 55.106 15.4991 51.532 15.6563 47.9375C15.6563 42.6875 16.9531 38.2188 18.75 36.5312L40.7188 39.125Z" fill="#FFCA3A"/>
<path d="M20.5156 22.6719L40.9375 25.0781C39.6894 27.1468 39.0402 29.5215 39.0625 31.9375C38.8981 34.4439 39.4741 36.9433 40.7188 39.125L18.75 36.5312L12.4844 35.7969L6.25 35.0625C4.53125 35.0625 3.125 31.9219 3.125 28.0312C3.125 24.1406 4.53125 21 6.25 21L13.8906 21.8906V21.9063L20.5156 22.6719Z" fill="#99E0D4"/>
<path d="M59.0312 41.2656L49.4531 40.1406L46.8437 39.8438C46.2726 38.5194 45.9241 37.1098 45.8125 35.6719L56.4844 36.8906C56.8906 39.25 57.8594 40.9688 59.0312 41.2656Z" fill="#5BD3C7"/>
<path d="M46.8438 39.8438L43.2656 39.4219L40.7188 39.125C39.8966 37.8657 39.4025 36.4209 39.2812 34.9219L45.8125 35.6719C45.9241 37.1098 46.2726 38.5194 46.8438 39.8438Z" fill="#5858DD"/>
<path d="M40.7187 39.125L18.75 36.5312L12.4844 35.7969L6.25 35.0625C4.96875 35.0625 3.85937 33.3125 3.375 30.7969L12.4219 31.8281L23.0156 33.0469L39.2812 34.9219C39.4025 36.4209 39.8966 37.8657 40.7187 39.125Z" fill="#5BD3C7"/>
<path d="M14.1406 7.85938L21.3125 8.70312C20.2813 9.54687 19.5313 12.6406 19.5313 16.3125C19.4681 18.4746 19.8017 20.63 20.5156 22.6719L13.8906 21.9063V21.8906C12.8403 19.6631 12.3624 17.2088 12.5 14.75C12.4784 12.3539 13.0415 9.98865 14.1406 7.85938Z" fill="#99E0D4"/>
<path d="M12.4844 35.7969L18.75 36.5312C16.9531 38.2187 15.6562 42.6875 15.6562 47.9375C15.4991 51.532 16.2742 55.106 17.9062 58.3125L11.6719 57.5781C10.0266 54.3703 9.24578 50.7891 9.40624 47.1875C9.40624 41.9531 10.6875 37.4844 12.4844 35.7969Z" fill="#F7931E"/>
<path d="M6.25 6.9375L14.1406 7.85938C13.0415 9.98865 12.4784 12.3539 12.5 14.75C12.3624 17.2088 12.8403 19.6631 13.8906 21.8906L6.25 21C4.53125 21 3.125 17.8594 3.125 13.9688C3.125 10.0781 4.53125 6.9375 6.25 6.9375Z" fill="#5E5EEA"/>
<path d="M59.0312 27.2031L20.5156 22.6719C20.133 21.698 19.8757 20.6794 19.75 19.6406L56.75 24C57.2344 25.75 58.0625 26.9688 59.0312 27.2031Z" fill="#5B52D8"/>
<path d="M13.8906 21.9063V21.8906C13.3553 20.9502 13.0052 19.9159 12.8594 18.8438L19.75 19.6406C19.8757 20.6794 20.133 21.698 20.5156 22.6719L13.8906 21.9063Z" fill="#5BD3C7"/>
<path d="M13.8906 21.8906L6.25 21C5.07813 21 4.04688 19.5312 3.51562 17.3594C3.82807 17.6717 4.24616 17.8556 4.6875 17.875L12.8594 18.8438C13.0052 19.9159 13.3553 20.9502 13.8906 21.8906Z" fill="#5B52D8"/>
<path d="M6.25 35.0625L12.4844 35.7969C10.6875 37.4844 9.40625 41.9531 9.40625 47.1875C9.24578 50.7891 10.0266 54.3703 11.6719 57.5781L6.25 56.9375C3.65625 56.9375 1.5625 52.0469 1.5625 46C1.5625 39.9531 3.65625 35.0625 6.25 35.0625Z" fill="#FFCA3A"/>
<path d="M58.8906 63.125L49.5625 62.0312C48.5394 60.5904 47.8459 58.942 47.5312 57.2031L48.7656 57.3438L55.4062 58.0625C56.1406 60.8438 57.4219 62.7813 58.8906 63.125Z" fill="#F7931E"/>
<path d="M49.5625 62.0312L43.25 61.2969C42.261 59.8654 41.5848 58.2416 41.2656 56.5312L41.9375 56.6094L47.5313 57.2031C47.8459 58.942 48.5394 60.5904 49.5625 62.0312Z" fill="#F15A24"/>
<path d="M43.25 61.2969L17.9063 58.3125C17.101 56.9182 16.5408 55.3961 16.25 53.8125L41.2656 56.5313C41.5848 58.2416 42.261 59.8654 43.25 61.2969Z" fill="#F7931E"/>
<path d="M17.9063 58.3125L11.6719 57.5781C10.8687 56.1996 10.3084 54.6933 10.0156 53.125L14.5469 53.625L16.25 53.8125C16.5408 55.3961 17.101 56.9182 17.9063 58.3125Z" fill="#F15A24"/>
<path d="M11.6719 57.5781L6.25 56.9375C4.65625 56.9375 3.26563 55.1094 2.42188 52.2969L7.79687 52.8906L10.0156 53.125C10.3084 54.6933 10.8687 56.1996 11.6719 57.5781Z" fill="#F7931E"/>
<path d="M98.4734 24.125L98.5 24.1125C98.9043 24.1008 99.2884 23.9327 99.5713 23.6436C99.8543 23.3546 100.014 22.967 100.017 22.5625C100.019 22.3581 99.9812 22.1553 99.9045 21.9659C99.8279 21.7764 99.7144 21.604 99.5707 21.4587C99.427 21.3134 99.2559 21.198 99.0672 21.1193C98.8786 21.0405 98.6763 21 98.4719 21C98.0312 20.8594 96.875 18.9578 96.875 15.5313C96.875 12.1047 98.0328 10.2031 98.4734 10.0625L98.4953 10.0516C98.8787 10.0243 99.2385 9.85663 99.5061 9.5807C99.7736 9.30478 99.9301 8.93993 99.9455 8.55591C99.961 8.17189 99.8344 7.79563 99.5899 7.49909C99.3454 7.20254 99.0002 7.0065 98.6203 6.94845L48.2625 1.02657C46.3022 0.793756 44.3212 0.793756 42.3609 1.02657L6.06406 5.38595H6.04063C3.10156 5.58907 1.5625 9.79845 1.5625 13.9688C1.46027 16.4484 2.11417 18.9005 3.4375 21C2.11371 23.0993 1.45977 25.5516 1.5625 28.0313C1.47858 30.4181 2.07464 32.7796 3.28125 34.8406C1.12344 37.0125 0 41.5188 0 46C0 52.1594 2.11094 58.3953 6.14687 58.5L59.1922 64.7406C59.2529 64.7477 59.3139 64.7508 59.375 64.75C59.4371 64.7503 59.4993 64.7467 59.5609 64.7391L71.875 63.261V69.4375C71.8749 69.7793 71.9869 70.1117 72.1937 70.3837C72.4006 70.6558 72.6909 70.8525 73.0203 70.9438C73.1563 70.9808 73.2966 70.9998 73.4375 71C73.7071 71 73.9721 70.9301 74.2068 70.7974C74.4414 70.6646 74.6377 70.4733 74.7766 70.2422L78.2687 64.4219L81.5625 68.8125C81.7593 69.0749 82.0336 69.2687 82.3466 69.3664C82.6596 69.4642 82.9955 69.461 83.3066 69.3573C83.6177 69.2536 83.8883 69.0547 84.0801 68.7886C84.2718 68.5226 84.375 68.203 84.375 67.875V61.7625L98.6234 60.0516C99.0192 60.0045 99.382 59.808 99.6376 59.5023C99.8932 59.1965 100.022 58.8047 99.9986 58.4069C99.9749 58.0091 99.8 57.6354 99.5098 57.3622C99.2196 57.0891 98.836 56.9372 98.4375 56.9375C97.3438 56.9375 95.3125 53.3781 95.3125 47.5625C95.3125 41.7969 97.2312 38.4594 98.4375 38.1875C98.8539 38.1888 99.2538 38.0251 99.5498 37.7323C99.8458 37.4395 100.014 37.0414 100.017 36.625C100.02 36.243 99.8823 35.8734 99.6293 35.5872C99.3763 35.301 99.0264 35.1186 98.6469 35.075C98.5851 35.0677 98.5231 35.0635 98.4609 35.0625C98.0125 34.8906 96.875 32.9938 96.875 29.5938C96.875 26.1563 98.0328 24.2656 98.4734 24.125ZM50.4484 60.5641C48.9734 57.6053 48.2811 54.318 48.4375 51.0156C48.3232 47.8452 48.9396 44.691 50.2391 41.7969L55.3844 42.4016C53.79 45.4329 53.0113 48.8268 53.125 52.25C53.072 55.2817 53.6576 58.2907 54.8437 61.0813L50.4484 60.5641ZM44.1422 59.8219C42.7159 56.8787 42.0442 53.6269 42.1875 50.3594C42.062 47.1621 42.6971 43.9806 44.0406 41.0766L46.9625 41.4203C45.7996 44.4826 45.2393 47.7408 45.3125 51.0156C45.2637 54.1187 45.7646 57.206 46.7922 60.1344L44.1422 59.8219ZM18.8859 56.8531C17.696 54.0389 17.1273 51.001 17.2188 47.9469C17.0361 44.5559 17.7885 41.18 19.3937 38.1875L40.5859 40.6766C40.6328 40.6766 40.675 40.7047 40.7219 40.7047C40.7338 40.7054 40.7458 40.7054 40.7578 40.7047C39.5727 43.7827 38.9969 47.0617 39.0625 50.3594C39.0173 53.4325 39.5069 56.49 40.5094 59.3953L18.8859 56.8531ZM12.6469 56.1203C11.445 53.3 10.8723 50.2517 10.9688 47.1875C10.7837 43.8036 11.5295 40.4336 13.125 37.4438L16.0344 37.7859C14.6632 40.9921 13.9991 44.4562 14.0875 47.9422C14.051 50.8229 14.4729 53.691 15.3375 56.4391L12.6469 56.1203ZM6.28437 33.5C5.84375 33.3594 4.6875 31.4578 4.6875 28.0313C4.6875 24.6344 5.82188 22.7406 6.2375 22.5719L13.6391 23.4344C13.6656 23.4344 13.6859 23.4547 13.7109 23.4578L45.1391 27.1453C44.4398 29.1895 44.1019 31.3399 44.1406 33.5C44.1366 35.0137 44.2985 36.5232 44.6234 38.0016L41.6344 37.6516C40.9009 35.8388 40.5569 33.8919 40.625 31.9375C40.6236 31.0042 40.7284 30.0737 40.9375 29.1641C40.9837 28.9641 40.99 28.757 40.9561 28.5546C40.9223 28.3522 40.8489 28.1585 40.7401 27.9844C40.6314 27.8104 40.4894 27.6595 40.3223 27.5403C40.1553 27.4211 39.9664 27.336 39.7664 27.2899C39.5664 27.2437 39.3594 27.2374 39.1569 27.2712C38.9545 27.3051 38.7608 27.3785 38.5868 27.4872C38.4127 27.596 38.2618 27.7379 38.1426 27.905C38.0235 28.0721 37.9384 28.261 37.8922 28.4609C37.6308 29.6013 37.4992 30.7676 37.5 31.9375C37.4831 33.7311 37.7118 35.5185 38.1797 37.25L18.8234 34.975H18.7906L12.5625 34.2406H12.5219L6.28437 33.5ZM15.0625 9.54376L21.1297 10.2547H21.1453L55.8641 14.3469C55.0523 16.1962 54.6509 18.1995 54.6875 20.2188C54.6748 21.9199 54.9522 23.6108 55.5078 25.2188L21.6906 21.2484C21.2749 19.6367 21.0742 17.9769 21.0938 16.3125C21.0915 15.3347 21.1516 14.3577 21.2734 13.3875C21.2997 13.184 21.2856 12.9772 21.232 12.7791C21.1784 12.581 21.0862 12.3954 20.9609 12.2329C20.8355 12.0704 20.6794 11.9342 20.5014 11.832C20.3234 11.7299 20.127 11.6638 19.9234 11.6375C19.7199 11.6112 19.5132 11.6253 19.3151 11.679C19.1169 11.7326 18.9313 11.8247 18.7688 11.9501C18.6063 12.0754 18.4701 12.2316 18.368 12.4096C18.2658 12.5876 18.1997 12.784 18.1734 12.9875C18.0347 14.0904 17.9663 15.201 17.9688 16.3125C17.9641 17.8394 18.1069 19.3631 18.3953 20.8625L14.9078 20.4531C14.2888 18.6176 14.0025 16.6862 14.0625 14.75C14.0608 12.9667 14.4002 11.1995 15.0625 9.54376ZM59.375 14.75C59.4366 14.7502 59.4982 14.7466 59.5594 14.7391L94.5594 10.5438C94.0087 12.1483 93.735 13.8349 93.75 15.5313C93.7126 17.5548 94.1162 19.5622 94.9328 21.4141L59.3922 25.6735C58.9391 25.4938 57.8125 23.6141 57.8125 20.2188C57.8125 16.7922 58.9688 14.8906 59.375 14.75ZM47.9688 38.3938C47.4832 36.8086 47.246 35.1578 47.2656 33.5C47.1554 31.4465 47.548 29.3971 48.4094 27.5297L55.8688 28.4047C55.0537 30.2548 54.6507 32.2599 54.6875 34.2813C54.6748 35.9824 54.9522 37.6733 55.5078 39.2813L47.9688 38.3938ZM59.3969 39.7375C58.9406 39.5578 57.8125 37.6781 57.8125 34.2813C57.8125 30.8547 58.9688 28.9531 59.375 28.8125C59.4371 28.8128 59.4993 28.8092 59.5609 28.8016L94.5609 24.6063C94.0097 26.2107 93.7355 27.8973 93.75 29.5938C93.7194 31.6189 94.1355 33.6259 94.9688 35.4719L59.3969 39.7375ZM42.7313 4.12501C44.4466 3.92189 46.18 3.92189 47.8953 4.12501L85.2078 8.51251L59.375 11.6141L21.5109 7.15157H21.4953L19.5125 6.91876L42.7313 4.12501ZM6.22969 8.50001L11.8672 9.16095C11.2528 10.9604 10.9387 12.8486 10.9375 14.75C10.9229 16.5319 11.1185 18.3093 11.5203 20.0453L6.28437 19.4375C5.84375 19.2969 4.6875 17.3953 4.6875 13.9688C4.6875 10.5969 5.80625 8.70313 6.22969 8.50782V8.50001ZM6.25 55.375C5.15625 55.375 3.125 51.8156 3.125 46C3.125 40.2188 5.12187 36.6781 6.22656 36.6328L9.77969 37.05C8.4166 40.2518 7.75642 43.7088 7.84375 47.1875C7.80852 50.0743 8.23526 52.9481 9.10781 55.7L6.43281 55.3875C6.37221 55.3794 6.31114 55.3752 6.25 55.375ZM79.375 60.6875C79.2229 60.4805 79.0214 60.3149 78.7889 60.2057C78.5563 60.0965 78.3002 60.0473 78.0438 60.0625C77.7896 60.0772 77.5428 60.1537 77.3249 60.2855C77.1071 60.4174 76.9247 60.6004 76.7937 60.8188L75 63.7969V50.3938L81.25 49.6406V63.1875L79.375 60.6875ZM84.375 58.6141V49.2641L85.3562 49.1453C85.768 49.0962 86.1433 48.8856 86.3997 48.5597C86.6561 48.2339 86.7725 47.8195 86.7234 47.4078C86.6743 46.9961 86.4637 46.6208 86.1378 46.3644C85.812 46.108 85.3976 45.9915 84.9859 46.0406L82.6422 46.325H82.6312L73.2562 47.45C73.2391 47.45 73.225 47.4625 73.2078 47.4641L71.2609 47.7C70.8657 47.747 70.5033 47.943 70.2477 48.2481C69.9921 48.5532 69.8626 48.9443 69.8855 49.3416C69.9084 49.7389 70.0821 50.1125 70.3711 50.3862C70.6601 50.6598 71.0426 50.8129 71.4406 50.8141C71.5023 50.8143 71.5638 50.8106 71.625 50.8031L71.875 50.7719V60.1141L59.375 61.6141L59.2375 61.5985C58.1594 61.3375 56.25 58.0047 56.25 52.25C56.25 46.4344 58.2812 42.875 59.375 42.875C59.4371 42.8753 59.4993 42.8717 59.5609 42.8641L93.9062 38.7469C92.7217 41.5325 92.1362 44.536 92.1875 47.5625C92.0744 50.9829 92.849 54.3742 94.4359 57.4063L84.375 58.6141Z" fill="#472B3C"/>
</svg>
