<svg width="6" height="20" viewBox="0 0 6 20" fill="none" xmlns="http://www.w3.org/2000/svg">
<path d="M2.99992 7.92008C4.14867 7.92008 5.07992 8.85133 5.07992 10.0001C5.07992 11.1488 4.14867 12.0801 2.99992 12.0801C1.85117 12.0801 0.919922 11.1488 0.919922 10.0001C0.919922 8.85133 1.85117 7.92008 2.99992 7.92008Z" fill="#08233F"/>
<path d="M2.99992 15.2004C4.14867 15.2004 5.07992 16.1316 5.07992 17.2804C5.07992 18.4291 4.14867 19.3604 2.99992 19.3604C1.85117 19.3604 0.919922 18.4291 0.919922 17.2804C0.919922 16.1316 1.85117 15.2004 2.99992 15.2004Z" fill="#08233F"/>
<path d="M2.99992 0.640781C4.14867 0.640781 5.07992 1.57203 5.07992 2.72078C5.07992 3.86953 4.14867 4.80078 2.99992 4.80078C1.85117 4.80078 0.919922 3.86953 0.919922 2.72078C0.919922 1.57203 1.85117 0.640781 2.99992 0.640781Z" fill="#08233F"/>
</svg>
