<svg width="24" height="25" viewBox="0 0 24 25" fill="none" xmlns="http://www.w3.org/2000/svg">
<path d="M12 3.53223H23.5V20.5322H12V3.53223Z" fill="white"/>
<path d="M23.5 21.0322H13.5C13.3674 21.0322 13.2402 20.9795 13.1464 20.8858C13.0527 20.792 13 20.6648 13 20.5322C13 20.3996 13.0527 20.2724 13.1464 20.1787C13.2402 20.0849 13.3674 20.0322 13.5 20.0322H23V4.03223H13.5C13.3674 4.03223 13.2402 3.97955 13.1464 3.88578C13.0527 3.79201 13 3.66483 13 3.53223C13 3.39962 13.0527 3.27244 13.1464 3.17867C13.2402 3.08491 13.3674 3.03223 13.5 3.03223H23.5C23.6326 3.03223 23.7598 3.08491 23.8536 3.17867C23.9473 3.27244 24 3.39962 24 3.53223V20.5322C24 20.6648 23.9473 20.792 23.8536 20.8858C23.7598 20.9795 23.6326 21.0322 23.5 21.0322Z" fill="#CC5334"/>
<path d="M14 0.0322266L0 2.64123V21.4222L14 24.0322V0.0322266Z" fill="#CC5334"/>
<path opacity="0.2" d="M0 2.64123V2.89123L14 0.282227V0.0322266L0 2.64123Z" fill="white"/>
<path opacity="0.1" d="M0 21.4229L14 24.0319V23.7819L0 21.1729V21.4229Z" fill="black"/>
<path d="M16.5 6.03223C15.8078 6.03223 15.1311 6.2375 14.5555 6.62208C13.9799 7.00667 13.5313 7.55329 13.2664 8.19283C13.0015 8.83238 12.9322 9.53611 13.0673 10.215C13.2023 10.894 13.5356 11.5176 14.0251 12.0071C14.5146 12.4966 15.1383 12.8299 15.8172 12.965C16.4961 13.1 17.1999 13.0307 17.8394 12.7658C18.4789 12.5009 19.0256 12.0523 19.4101 11.4767C19.7947 10.9012 20 10.2245 20 9.53223H16.5V6.03223Z" fill="#CC5334"/>
<path d="M17.5 5.03223V8.53223H21C21 7.60397 20.6313 6.71373 19.9749 6.05735C19.3185 5.40098 18.4283 5.03223 17.5 5.03223ZM13.5 14.5322H21.5V15.5322H13.5V14.5322ZM13.5 17.5322H21.5V18.5322H13.5V17.5322Z" fill="#CC5334"/>
<path d="M23.5 21.0322C23.6326 21.0322 23.7598 20.9795 23.8536 20.8858C23.9473 20.792 24 20.6648 24 20.5322V13.0322L14 3.03223V21.0322H23.5Z" fill="url(#paint0_linear_662_742)"/>
<path d="M6.25 13.2822H6.5C8.017 13.2822 9.25 12.0492 9.25 10.5322C9.25 9.01523 8.017 7.78223 6.5 7.78223H4.75V16.3362L6.25 16.4432V13.2822ZM6.25 9.28223H6.5C6.82287 9.29514 7.12822 9.43249 7.35209 9.6655C7.57596 9.89851 7.70099 10.2091 7.70099 10.5322C7.70099 10.8554 7.57596 11.1659 7.35209 11.399C7.12822 11.632 6.82287 11.7693 6.5 11.7822H6.25V9.28223Z" fill="white"/>
<path opacity="0.05" d="M14 0.0322266L0 2.64123V21.4222L14 24.0322V0.0322266Z" fill="url(#paint1_linear_662_742)"/>
<path d="M23.5 3.03223H14V0.0322266L0 2.64123V21.4222L14 24.0322V21.0322H23.5C23.6326 21.0322 23.7598 20.9795 23.8536 20.8858C23.9473 20.792 24 20.6648 24 20.5322V3.53223C24 3.39962 23.9473 3.27244 23.8536 3.17867C23.7598 3.08491 23.6326 3.03223 23.5 3.03223Z" fill="url(#paint2_linear_662_742)"/>
<defs>
<linearGradient id="paint0_linear_662_742" x1="9.5" y1="7.53223" x2="23.354" y2="21.3862" gradientUnits="userSpaceOnUse">
<stop stop-opacity="0.1"/>
<stop offset="1" stop-opacity="0"/>
</linearGradient>
<linearGradient id="paint1_linear_662_742" x1="-0.133" y1="12.2162" x2="13.892" y2="12.2162" gradientUnits="userSpaceOnUse">
<stop stop-color="white"/>
<stop offset="1"/>
</linearGradient>
<linearGradient id="paint2_linear_662_742" x1="-1.563" y1="5.99423" x2="25.045" y2="18.4012" gradientUnits="userSpaceOnUse">
<stop stop-color="white" stop-opacity="0.2"/>
<stop offset="1" stop-color="white" stop-opacity="0"/>
</linearGradient>
</defs>
</svg>
