<svg width="24" height="25" viewBox="0 0 24 25" fill="none" xmlns="http://www.w3.org/2000/svg">
<g clipPath="url(#clip0_662_758)">
<path d="M6 0.0322266C5.175 0.0322266 4.5 0.707227 4.5 1.53223V22.5322C4.5 23.3572 5.175 24.0322 6 24.0322H21C21.825 24.0322 22.5 23.3572 22.5 22.5322V6.03223L16.5 0.0322266H6Z" fill="#E2E5E7"/>
<path d="M18 6.03223H22.5L16.5 0.0322266V4.53223C16.5 5.35723 17.175 6.03223 18 6.03223Z" fill="#B0B7BD"/>
<path d="M22.5 10.5322L18 6.03223H22.5V10.5322Z" fill="#CAD1D8"/>
<path d="M19.5 19.5322C19.5 19.9447 19.1625 20.2822 18.75 20.2822H2.25C1.8375 20.2822 1.5 19.9447 1.5 19.5322V12.0322C1.5 11.6197 1.8375 11.2822 2.25 11.2822H18.75C19.1625 11.2822 19.5 11.6197 19.5 12.0322V19.5322Z" fill="#F15642"/>
<path d="M4.76953 14.2421C4.76953 14.0441 4.92553 13.8281 5.17678 13.8281H6.56203C7.34203 13.8281 8.04403 14.3501 8.04403 15.3506C8.04403 16.2986 7.34203 16.8266 6.56203 16.8266H5.56078V17.6186C5.56078 17.8826 5.39278 18.0319 5.17678 18.0319C4.97878 18.0319 4.76953 17.8826 4.76953 17.6186V14.2421ZM5.56078 14.5834V16.0774H6.56203C6.96403 16.0774 7.28203 15.7226 7.28203 15.3506C7.28203 14.9314 6.96403 14.5834 6.56203 14.5834H5.56078ZM9.21853 18.0319C9.02053 18.0319 8.80453 17.9239 8.80453 17.6606V14.2541C8.80453 14.0389 9.02053 13.8821 9.21853 13.8821H10.5918C13.3323 13.8821 13.2723 18.0319 10.6458 18.0319H9.21853ZM9.59653 14.6141V17.3006H10.5918C12.211 17.3006 12.283 14.6141 10.5918 14.6141H9.59653ZM14.2443 14.6621V15.6154H15.7735C15.9895 15.6154 16.2055 15.8314 16.2055 16.0406C16.2055 16.2386 15.9895 16.4006 15.7735 16.4006H14.2443V17.6599C14.2443 17.8699 14.095 18.0311 13.885 18.0311C13.621 18.0311 13.4598 17.8699 13.4598 17.6599V14.2534C13.4598 14.0381 13.6218 13.8814 13.885 13.8814H15.9903C16.2543 13.8814 16.4103 14.0381 16.4103 14.2534C16.4103 14.4454 16.2543 14.6614 15.9903 14.6614H14.2443V14.6621Z" fill="white"/>
<path d="M18.75 20.2822H4.5V21.0322H18.75C19.1625 21.0322 19.5 20.6947 19.5 20.2822V19.5322C19.5 19.9447 19.1625 20.2822 18.75 20.2822Z" fill="#CAD1D8"/>
</g>
<defs>
<clipPath id="clip0_662_758">
<rect width="24" height="24" fill="white" transform="translate(0 0.0322266)"/>
</clipPath>
</defs>
</svg>
