<svg width="24" height="19" viewBox="0 0 24 19" fill="none" xmlns="http://www.w3.org/2000/svg">
<path d="M4 6.77806C5.65685 6.77806 7 5.43492 7 3.77806C7 2.12121 5.65685 0.778061 4 0.778061C2.34315 0.778061 1 2.12121 1 3.77806C1 5.43492 2.34315 6.77806 4 6.77806Z" fill="#165072"/>
<path d="M7.29 8.84806C6.2835 9.47613 5.45339 10.35 4.87782 11.3874C4.30226 12.4248 4.00017 13.5917 4 14.7781H2C1.47005 14.7765 0.962265 14.5653 0.587535 14.1905C0.212805 13.8158 0.00158273 13.308 0 12.7781L0 10.7781C0.00237409 9.98314 0.319207 9.22146 0.881302 8.65936C1.4434 8.09727 2.20508 7.78044 3 7.77806H5C5.43657 7.77905 5.86767 7.8753 6.26319 8.06011C6.65872 8.24492 7.00914 8.51383 7.29 8.84806Z" fill="#165072"/>
<path d="M20 6.77806C21.6569 6.77806 23 5.43492 23 3.77806C23 2.12121 21.6569 0.778061 20 0.778061C18.3431 0.778061 17 2.12121 17 3.77806C17 5.43492 18.3431 6.77806 20 6.77806Z" fill="#165072"/>
<path d="M24 10.7781V12.7781C23.9984 13.308 23.7872 13.8158 23.4124 14.1905C23.0377 14.5653 22.5299 14.7765 22 14.7781H20C19.9998 13.5917 19.6977 12.4248 19.1221 11.3874C18.5466 10.35 17.7165 9.47613 16.71 8.84806C16.9908 8.51383 17.3412 8.24492 17.7368 8.06011C18.1323 7.8753 18.5634 7.77905 19 7.77806H21C21.7949 7.78044 22.5566 8.09727 23.1187 8.65936C23.6808 9.22146 23.9976 9.98314 24 10.7781Z" fill="#165072"/>
<path d="M12 8.77806C14.2091 8.77806 16 6.9872 16 4.77806C16 2.56892 14.2091 0.778061 12 0.778061C9.79086 0.778061 8 2.56892 8 4.77806C8 6.9872 9.79086 8.77806 12 8.77806Z" fill="#165072"/>
<path d="M18 14.7781V15.7781C17.9976 16.573 17.6808 17.3347 17.1187 17.8968C16.5566 18.4589 15.7949 18.7757 15 18.7781H9C8.20508 18.7757 7.4434 18.4589 6.8813 17.8968C6.31921 17.3347 6.00237 16.573 6 15.7781V14.7781C6 13.452 6.52678 12.1802 7.46447 11.2425C8.40215 10.3048 9.67392 9.77806 11 9.77806H13C14.3261 9.77806 15.5979 10.3048 16.5355 11.2425C17.4732 12.1802 18 13.452 18 14.7781Z" fill="#165072"/>
</svg>
