<svg width="24" height="25" viewBox="0 0 24 25" fill="none" xmlns="http://www.w3.org/2000/svg">
<g clipPath="url(#clip0_662_694)">
<path d="M24 7.53125V23.0938H16.8483C14.883 23.0938 13.8495 24.4263 13.7442 24.5H10.2558C10.149 24.4253 9.13022 23.0938 7.15172 23.0938H0V6.125H1.40625V21.6875H7.15781C9.35541 21.6875 10.5787 22.9274 10.8834 23.0938H13.1166C13.4212 22.9274 14.6448 21.6875 16.8422 21.6875H22.5938V7.53125H24Z" fill="#08233F"/>
<path d="M9.88734 20.8423C9.03328 20.473 8.10938 20.2812 7.15781 20.2812H2.8125V3.3125H4.21875V17.4688H6.32812C8.24438 17.4688 9.81187 18.9692 9.88734 20.8423ZM16.8422 4.71875C15.3528 4.71875 13.9183 5.10894 12.6537 5.85505C12.6867 6.17836 12.7032 6.50314 12.7031 6.82812V21.658C12.8095 21.5806 12.9177 21.5058 13.0276 21.4335C15.1987 19.9855 16.6946 20.2812 21.1875 20.2812V4.71875H16.8422Z" fill="#08233F"/>
<path d="M11.2969 20.9844C11.2969 18.2705 9.06792 16.0625 6.32812 16.0625H5.625V0.5C9.1402 0.5 11.2969 3.3388 11.2969 6.82812V20.9844Z" fill="#08233F"/>
</g>
<defs>
<clipPath id="clip0_662_694">
<rect width="24" height="24" fill="white" transform="translate(0 0.5)"/>
</clipPath>
</defs>
</svg>
