<svg width="100" height="100" viewBox="0 0 100 100" fill="none" xmlns="http://www.w3.org/2000/svg">
<g clipPath="url(#clip0_1210_1168)">
<path d="M50.0001 100C77.6144 100 100 77.6144 100 50.0001C100 22.3858 77.6144 0 50.0001 0C22.3858 0 0 22.3858 0 50.0001C0 77.6144 22.3858 100 50.0001 100Z" fill="#E89B32"/>
<path d="M68.3965 31.1756C68.3965 29.8011 67.2818 28.6855 65.9063 28.6855H56.2749C54.8979 28.6855 53.7832 29.8011 53.7832 31.1756V55.8022L68.3963 41.1882L68.3965 31.1756Z" fill="#E89B32"/>
<path d="M68.395 68.8173C68.395 70.1926 67.2803 71.3076 65.9048 71.3076H56.2734C54.8964 71.3076 53.7817 70.1929 53.7817 68.8173V31.1756C53.7817 29.8011 54.8964 28.6855 56.2734 28.6855H65.9048C67.2801 28.6855 68.395 29.8011 68.395 31.1756V68.8173ZM46.2118 68.8173C46.2118 70.1926 45.0971 71.3076 43.7216 71.3076H34.0879C32.7126 71.3076 31.5977 70.1929 31.5977 68.8173V31.1756C31.5977 29.8011 32.7124 28.6855 34.0879 28.6855H43.7207C45.096 28.6855 46.2108 29.8011 46.2108 31.1756V68.8173H46.2118Z" fill="white"/>
</g>
<defs>
<clipPath id="clip0_1210_1168">
<rect width="100" height="100" fill="white"/>
</clipPath>
</defs>
</svg>
