<svg width="60" height="60" viewBox="0 0 60 60" fill="none" xmlns="http://www.w3.org/2000/svg">
<g clipPath="url(#clip0_1210_1184)">
<path d="M51.2656 51.2132C62.9813 39.4975 62.9813 20.5025 51.2656 8.7868C39.5499 -2.92893 20.5549 -2.92893 8.83918 8.7868C-2.87655 20.5025 -2.87655 39.4975 8.83918 51.2132C20.5549 62.9289 39.5499 62.9289 51.2656 51.2132Z" fill="#E89B32"/>
<path fill-rule="evenodd" clip-rule="evenodd" d="M44.9471 27.331L24.6913 15.6368C24.2229 15.3667 23.6917 15.2245 23.151 15.2246C22.6103 15.2247 22.0791 15.367 21.6108 15.6373C21.1425 15.9075 20.7536 16.2962 20.483 16.7644C20.2125 17.2325 20.0698 17.7636 20.0694 18.3043V41.6949C20.0663 42.2363 20.2072 42.7688 20.4778 43.2377C20.7484 43.7066 21.1389 44.0951 21.6092 44.3633C22.0768 44.6365 22.6087 44.7804 23.1502 44.7804C23.6918 44.7804 24.2237 44.6365 24.6913 44.3633L44.9471 32.6679C45.4153 32.3973 45.804 32.0083 46.0743 31.5399C46.3446 31.0716 46.4868 30.5403 46.4868 29.9996C46.4868 29.4588 46.3446 28.9276 46.0743 28.4592C45.804 27.9909 45.4153 27.6018 44.9471 27.3312V27.331Z" fill="white"/>
</g>
<defs>
<clipPath id="clip0_1210_1184">
<rect width="60" height="60" fill="white"/>
</clipPath>
</defs>
</svg>
