<svg width="24" height="25" viewBox="0 0 24 25" fill="none" xmlns="http://www.w3.org/2000/svg">
<g clipPath="url(#clip0_557_552)">
<path d="M15.4688 7.06348C14.5641 7.06348 13.8281 6.32749 13.8281 5.42285V0.0322266H5.4375C4.01592 0.0322266 2.85938 1.18877 2.85938 2.61035V21.4541C2.85938 22.8757 4.01592 24.0322 5.4375 24.0322H18.5625C19.9841 24.0322 21.1406 22.8757 21.1406 21.4541V7.06348H15.4688ZM6.70312 16.9072H10.1119C10.5002 16.9072 10.815 17.222 10.815 17.6104C10.815 17.9987 10.5002 18.3135 10.1119 18.3135H6.70312C6.31481 18.3135 6 17.9987 6 17.6104C6 17.222 6.31481 16.9072 6.70312 16.9072ZM6 13.8604C6 13.472 6.31481 13.1572 6.70312 13.1572H17.0156C17.4039 13.1572 17.7188 13.472 17.7188 13.8604C17.7188 14.2487 17.4039 14.5635 17.0156 14.5635H6.70312C6.31481 14.5635 6 14.2487 6 13.8604ZM17.0156 9.40723C17.4039 9.40723 17.7188 9.72204 17.7188 10.1104C17.7188 10.4987 17.4039 10.8135 17.0156 10.8135H6.70312C6.31481 10.8135 6 10.4987 6 10.1104C6 9.72204 6.31481 9.40723 6.70312 9.40723H17.0156Z" fill="#0088FF"/>
<path d="M15.2344 5.42323C15.2344 5.55247 15.3395 5.65761 15.4688 5.65761H20.8272C20.698 5.41834 20.5316 5.20108 20.3343 5.01392L15.8145 0.737891C15.6412 0.573882 15.446 0.434669 15.2344 0.324219V5.42323H15.2344Z" fill="#0088FF"/>
</g>
<defs>
<clipPath id="clip0_557_552">
<rect width="24" height="24" fill="white" transform="translate(0 0.0322266)"/>
</clipPath>
</defs>
</svg>
