<svg width="24" height="25" viewBox="0 0 24 25" fill="none" xmlns="http://www.w3.org/2000/svg">
<path fillRule="evenodd" clipRule="evenodd" d="M6.75 4.77806C6.75 4.08806 7.31 3.52806 8 3.52806H20C20.69 3.52806 21.25 4.08806 21.25 4.77806V10.7781C21.25 11.4681 20.69 12.0281 20 12.0281H19C18.8011 12.0281 18.6103 12.1071 18.4697 12.2477C18.329 12.3884 18.25 12.5792 18.25 12.7781C18.25 12.977 18.329 13.1677 18.4697 13.3084C18.6103 13.449 18.8011 13.5281 19 13.5281H20C20.7293 13.5281 21.4288 13.2383 21.9445 12.7226C22.4603 12.2069 22.75 11.5074 22.75 10.7781V4.77806C22.75 4.04872 22.4603 3.34924 21.9445 2.83352C21.4288 2.31779 20.7293 2.02806 20 2.02806H8C7.27066 2.02806 6.57118 2.31779 6.05546 2.83352C5.53973 3.34924 5.25 4.04872 5.25 4.77806V6.27806C5.25 6.47697 5.32902 6.66774 5.46967 6.80839C5.61032 6.94904 5.80109 7.02806 6 7.02806C6.19891 7.02806 6.38968 6.94904 6.53033 6.80839C6.67098 6.66774 6.75 6.47697 6.75 6.27806V4.77806ZM7 10.7781C7 11.3085 6.78929 11.8172 6.41421 12.1923C6.03914 12.5673 5.53043 12.7781 5 12.7781C4.46957 12.7781 3.96086 12.5673 3.58579 12.1923C3.21071 11.8172 3 11.3085 3 10.7781C3 10.2476 3.21071 9.73892 3.58579 9.36385C3.96086 8.98878 4.46957 8.77806 5 8.77806C5.53043 8.77806 6.03914 8.98878 6.41421 9.36385C6.78929 9.73892 7 10.2476 7 10.7781ZM17.63 10.1841C17.6887 10.1014 17.73 10.0077 17.7515 9.90865C17.773 9.80958 17.7741 9.70718 17.7549 9.60765C17.7357 9.50812 17.6965 9.41351 17.6397 9.32955C17.5829 9.24559 17.5097 9.17401 17.4244 9.11915C17.3392 9.06428 17.2437 9.02727 17.1438 9.01034C17.0438 8.99341 16.9415 8.99691 16.8429 9.02065C16.7444 9.04438 16.6517 9.08784 16.5704 9.14842C16.4891 9.20899 16.4209 9.28541 16.37 9.37306L12.478 15.4251C12.2737 15.3572 12.0569 15.3357 11.8432 15.3621C11.6296 15.3886 11.4245 15.4624 11.243 15.5781L8 17.2781V16.7781C8 15.9824 7.68393 15.2194 7.12132 14.6567C6.55871 14.0941 5.79565 13.7781 5 13.7781C4.20435 13.7781 3.44129 14.0941 2.87868 14.6567C2.31607 15.2194 2 15.9824 2 16.7781V22.7781H8V20.4581C8.263 20.4181 8.523 20.3261 8.764 20.1751L12.791 18.0331C13.274 17.7321 13.519 17.1931 13.467 16.6611L17.63 10.1841ZM9.25 6.77806C9.25 6.57915 9.32902 6.38838 9.46967 6.24773C9.61032 6.10708 9.80109 6.02806 10 6.02806H18C18.1989 6.02806 18.3897 6.10708 18.5303 6.24773C18.671 6.38838 18.75 6.57915 18.75 6.77806C18.75 6.97697 18.671 7.16774 18.5303 7.30839C18.3897 7.44904 18.1989 7.52806 18 7.52806H10C9.80109 7.52806 9.61032 7.44904 9.46967 7.30839C9.32902 7.16774 9.25 6.97697 9.25 6.77806ZM10 9.02806C9.80109 9.02806 9.61032 9.10708 9.46967 9.24773C9.32902 9.38838 9.25 9.57915 9.25 9.77806C9.25 9.97697 9.32902 10.1677 9.46967 10.3084C9.61032 10.449 9.80109 10.5281 10 10.5281H14C14.1989 10.5281 14.3897 10.449 14.5303 10.3084C14.671 10.1677 14.75 9.97697 14.75 9.77806C14.75 9.57915 14.671 9.38838 14.5303 9.24773C14.3897 9.10708 14.1989 9.02806 14 9.02806H10Z" fill="#165072"/>
</svg>
