<svg width="16" height="22" viewBox="0 0 16 22" fill="none" xmlns="http://www.w3.org/2000/svg">
<path d="M8.05132 12.5144C8.22853 12.5144 8.37218 12.3708 8.37218 12.1936C8.37218 12.0164 8.22853 11.8727 8.05132 11.8727C7.87412 11.8727 7.73047 12.0164 7.73047 12.1936C7.73047 12.3708 7.87412 12.5144 8.05132 12.5144Z" fill="black"/>
<path d="M8.05132 13.7825C8.22853 13.7825 8.37218 13.6388 8.37218 13.4616C8.37218 13.2844 8.22853 13.1407 8.05132 13.1407C7.87412 13.1407 7.73047 13.2844 7.73047 13.4616C7.73047 13.6388 7.87412 13.7825 8.05132 13.7825Z" fill="black"/>
<path d="M10.3025 10.2454L11.6886 8.9799L12.3534 8.37669C13.5547 7.29348 14.1502 5.82524 14.1733 3.88214V2.24963H15.1795C15.2223 2.25065 15.2648 2.24311 15.3047 2.22745C15.3445 2.21179 15.3808 2.18832 15.4114 2.15842C15.442 2.12852 15.4663 2.0928 15.4829 2.05336C15.4995 2.01393 15.5081 1.97156 15.5081 1.92877V0.540109C15.5081 0.455013 15.4743 0.373402 15.4141 0.31323C15.3539 0.253058 15.2723 0.219254 15.1872 0.219254H0.920679C0.835583 0.219254 0.753972 0.253058 0.6938 0.31323C0.633628 0.373402 0.599824 0.455013 0.599824 0.540109V1.92877C0.599824 2.01387 0.633628 2.09548 0.6938 2.15565C0.753972 2.21582 0.835583 2.24963 0.920679 2.24963H1.92688V3.87701C1.94998 5.81498 2.54806 7.28321 3.74934 8.36385L4.5194 9.06717L5.80282 10.2376C5.93627 10.338 6.04676 10.4658 6.12688 10.6123C6.207 10.7588 6.25492 10.9207 6.26742 11.0873C6.25098 11.2591 6.19834 11.4255 6.11295 11.5754C6.02756 11.7254 5.91136 11.8556 5.77202 11.9574L3.74421 13.8107C2.54293 14.8913 1.94742 16.3596 1.92175 18.3027V19.7196H0.920679C0.877888 19.7196 0.835527 19.7281 0.796088 19.7447C0.75665 19.7613 0.720931 19.7856 0.691034 19.8163C0.661137 19.8469 0.637665 19.8832 0.622001 19.923C0.606337 19.9628 0.598797 20.0054 0.599824 20.0481V21.4368C0.599824 21.5219 0.633628 21.6035 0.6938 21.6637C0.753972 21.7238 0.835583 21.7577 0.920679 21.7577H15.1795C15.2229 21.7587 15.2661 21.7509 15.3065 21.7348C15.3468 21.7187 15.3835 21.6945 15.4142 21.6638C15.4449 21.633 15.4691 21.5964 15.4852 21.5561C15.5013 21.5157 15.5091 21.4725 15.5081 21.4291V20.0481C15.5081 19.963 15.4743 19.8814 15.4141 19.8213C15.3539 19.7611 15.2723 19.7273 15.1872 19.7273H14.1733V18.2975C14.1502 16.3596 13.5547 14.8913 12.3534 13.8107L10.323 11.9549C10.185 11.854 10.0699 11.7249 9.98536 11.5762C9.90085 11.4276 9.84884 11.2627 9.83276 11.0924C9.84688 10.9261 9.89604 10.7646 9.97699 10.6186C10.058 10.4726 10.1689 10.3454 10.3025 10.2454ZM9.19105 11.095C9.20502 11.3551 9.27484 11.6092 9.39575 11.84C9.51667 12.0707 9.68585 12.2728 9.8918 12.4323L11.9145 14.2856C12.9926 15.2558 13.5034 16.5341 13.5239 18.3027V19.7196H2.56859V18.3052C2.5917 16.5341 3.1025 15.2558 4.18057 14.2856L6.20838 12.4349C6.41579 12.274 6.58618 12.0704 6.70797 11.8379C6.82977 11.6054 6.90012 11.3494 6.91426 11.0873C6.90129 10.8332 6.83357 10.5849 6.71572 10.3594C6.59787 10.1339 6.43269 9.93649 6.23148 9.78075L4.94806 8.61027L4.17801 7.90695C3.1025 6.93669 2.5917 5.6584 2.56859 3.88984V2.24963H13.5316V3.87701C13.5111 5.64813 13.0003 6.92642 11.9222 7.89669C11.6989 8.0969 11.4781 8.29968 11.2548 8.50503L9.861 9.78075C9.66269 9.93993 9.50043 10.1394 9.38494 10.3659C9.26945 10.5925 9.20337 10.841 9.19105 11.095Z" fill="black"/>
<path d="M12.2765 6.44386C12.311 6.38409 12.3252 6.31471 12.3168 6.24619C12.3085 6.17767 12.2781 6.11371 12.2302 6.06396C12.1833 6.01305 12.1208 5.97913 12.0525 5.96752C11.9843 5.95591 11.9141 5.96726 11.8529 5.99979C10.5875 6.64407 10.1126 6.88535 8.14897 6.25648C6.89033 5.8464 5.52195 5.93836 4.3295 6.51316C4.28599 6.53375 4.24767 6.56386 4.21738 6.60126C4.18709 6.63867 4.1656 6.68241 4.15451 6.72924C4.14342 6.77608 4.143 6.82481 4.1533 6.87183C4.1636 6.91885 4.18434 6.96295 4.21399 7.00086C4.3372 7.14717 7.12993 9.82439 7.1556 9.82439C7.36262 10.0622 7.4885 10.3598 7.51496 10.674C7.53169 10.8047 7.59805 10.924 7.7003 11.0072C7.80256 11.0903 7.93287 11.1309 8.06426 11.1206C8.126 11.1267 8.18831 11.1204 8.24761 11.1022C8.3069 11.084 8.362 11.0542 8.40973 11.0146C8.45746 10.975 8.49687 10.9263 8.52569 10.8714C8.55451 10.8164 8.57216 10.7563 8.57763 10.6946C8.62703 10.2846 8.82856 9.90806 9.14234 9.63958C9.18597 9.60107 9.36565 9.4291 9.6095 9.19551C10.2101 8.62054 11.2112 7.65541 11.4859 7.41412C11.7997 7.13516 12.0666 6.80756 12.2765 6.44386ZM3.63132 18.6928C3.63028 18.7361 3.63798 18.779 3.65396 18.8192C3.66994 18.8594 3.69387 18.8959 3.72431 18.9266C3.75476 18.9573 3.79109 18.9815 3.83113 18.9978C3.87117 19.0141 3.91409 19.0221 3.95731 19.0214H12.1481C12.2332 19.0214 12.3148 18.9876 12.375 18.9274C12.4352 18.8672 12.469 18.7856 12.469 18.7005C12.4412 17.547 11.9634 16.4501 11.1377 15.6441C10.3121 14.8381 9.20398 14.3869 8.05014 14.3869C6.8963 14.3869 5.7882 14.8381 4.96254 15.6441C4.13688 16.4501 3.65912 17.547 3.63132 18.7005V18.6928Z" fill="black"/>
</svg>
