<svg width="24" height="25" viewBox="0 0 24 25" fill="none" xmlns="http://www.w3.org/2000/svg">
<g clipPath="url(#clip0_310_43)">
<path d="M12 24.5C18.6257 24.5 24 19.1257 24 12.5C24 5.87427 18.6257 0.5 12 0.5C5.37427 0.5 0 5.87427 0 12.5C0 19.1257 5.37427 24.5 12 24.5ZM11.1428 5.64287C11.1428 5.17142 11.5286 4.7857 12 4.7857C12.4714 4.7857 12.8572 5.17142 12.8572 5.64287V12.0886L16.8215 15.26C17.19 15.5557 17.25 16.0957 16.9543 16.4643C16.8743 16.5648 16.7726 16.6459 16.6568 16.7015C16.541 16.7572 16.4142 16.786 16.2857 16.7857C16.0971 16.7857 15.9085 16.7257 15.75 16.5971L11.4643 13.1686C11.2629 13.0057 11.1429 12.7615 11.1429 12.5V5.64287H11.1428Z" fill="#0C2D40"/>
</g>
<defs>
<clipPath id="clip0_310_43">
<rect width="24" height="24" fill="white" transform="translate(0 0.5)"/>
</clipPath>
</defs>
</svg>
